<svg xmlns="http://www.w3.org/2000/svg" xmlns:xlink="http://www.w3.org/1999/xlink" width="300" zoomAndPan="magnify" viewBox="0 0 224.87999 67.499998" height="90" preserveAspectRatio="xMidYMid meet" version="1.0"><defs><g/></defs><g fill="#313bac" fill-opacity="1"><g transform="translate(37.453459, 48.856844)"><g><path d="M 18.480469 -1.898438 L 18.480469 -26.578125 C 18.480469 -28.644531 18.257812 -30.597656 16.640625 -32.386719 L 11.054688 -39.085938 C 10.050781 -40.089844 8.265625 -39.867188 7.480469 -38.917969 C 5.25 -36.574219 4.132812 -34.898438 1.953125 -32.328125 C 0.390625 -30.542969 0 -28.589844 0 -26.578125 L 0 -1.898438 C 0 -0.335938 1.226562 0.390625 2.34375 0.390625 C 3.628906 0.390625 4.800781 -0.390625 4.800781 -1.898438 L 4.800781 -12.785156 L 13.679688 -12.785156 L 13.679688 -1.898438 C 13.679688 -0.390625 14.910156 0.335938 16.082031 0.335938 C 17.308594 0.335938 18.480469 -0.390625 18.480469 -1.898438 Z M 13.679688 -26.578125 L 13.679688 -17.53125 L 4.800781 -17.53125 L 4.800781 -26.578125 C 4.800781 -27.582031 5.082031 -28.589844 5.640625 -29.371094 L 9.269531 -34.003906 L 12.898438 -29.257812 C 13.511719 -28.53125 13.679688 -27.527344 13.679688 -26.578125 Z M 13.679688 -26.578125 "/></g></g></g><g fill="#313bac" fill-opacity="1"><g transform="translate(59.955508, 48.856844)"><g><path d="M 17.757812 -2.066406 L 17.757812 -18.089844 C 17.757812 -22.835938 13.679688 -27.023438 8.878906 -27.023438 C 4.132812 -27.023438 0 -22.894531 0 -18.089844 L 0 -2.066406 C 0 -0.558594 1.226562 0.167969 2.34375 0.167969 C 3.519531 0.167969 4.691406 -0.613281 4.691406 -2.066406 L 4.691406 -18.089844 C 4.691406 -20.4375 6.589844 -22.390625 8.878906 -22.390625 C 11.222656 -22.390625 13.175781 -20.4375 13.175781 -18.089844 L 13.175781 -2.066406 C 13.175781 -0.726562 14.351562 0.113281 15.464844 0.113281 C 16.640625 0.113281 17.757812 -0.613281 17.757812 -2.066406 Z M 17.757812 -2.066406 "/></g></g></g><g fill="#313bac" fill-opacity="1"><g transform="translate(81.731678, 48.856844)"><g><path d="M -0.113281 -24.566406 L -0.113281 -8.597656 C -0.113281 -3.851562 3.964844 0.335938 8.765625 0.335938 C 13.511719 0.335938 17.644531 -3.796875 17.644531 -8.597656 L 17.644531 -24.566406 C 17.644531 -26.074219 16.472656 -26.800781 15.300781 -26.800781 C 14.183594 -26.800781 13.066406 -26.074219 13.066406 -24.566406 L 13.066406 -8.597656 C 13.066406 -6.253906 11.113281 -4.300781 8.765625 -4.300781 C 6.476562 -4.300781 4.578125 -6.253906 4.578125 -8.597656 L 4.578125 -24.566406 C 4.578125 -26.074219 3.351562 -26.855469 2.234375 -26.855469 C 1.117188 -26.855469 -0.113281 -26.074219 -0.113281 -24.566406 Z M -0.113281 -24.566406 "/></g></g></g><g fill="#313bac" fill-opacity="1"><g transform="translate(103.396183, 48.856844)"><g><path d="M 6.140625 -26.800781 L 6.140625 -22.167969 L 8.65625 -22.167969 C 11 -22.167969 12.953125 -20.269531 12.953125 -17.980469 L 12.953125 -8.320312 C 12.953125 -6.03125 11 -4.132812 8.65625 -4.132812 C 6.367188 -4.132812 4.578125 -6.140625 4.578125 -8.542969 L 4.578125 -36.796875 C 4.523438 -39.980469 -0.0546875 -39.867188 -0.113281 -36.796875 L -0.113281 -8.542969 C -0.113281 -3.742188 3.742188 0.503906 8.65625 0.503906 C 13.734375 0.503906 17.53125 -3.460938 17.53125 -8.320312 L 17.53125 -18.089844 C 17.53125 -22.835938 13.792969 -26.800781 8.65625 -26.800781 Z M 6.140625 -26.800781 "/></g></g></g><g fill="#313bac" fill-opacity="1"><g transform="translate(124.837338, 48.856844)"><g><path d="M 0 -36.574219 L 0 -2.066406 C 0 -0.503906 1.117188 0.335938 2.402344 0.335938 C 3.519531 0.335938 4.632812 -0.445312 4.632812 -2.066406 L 4.632812 -21.71875 L 7.984375 -21.71875 C 10.386719 -21.71875 12.285156 -19.542969 12.285156 -17.253906 L 12.285156 -2.066406 C 12.285156 -0.613281 13.511719 0.167969 14.683594 0.167969 C 15.800781 0.167969 16.917969 -0.613281 16.917969 -2.066406 L 16.917969 -17.253906 C 16.917969 -22.109375 12.84375 -26.300781 7.984375 -26.300781 L 4.632812 -26.300781 L 4.632812 -36.574219 C 4.632812 -38.023438 3.460938 -38.695312 2.34375 -38.695312 C 1.117188 -38.695312 0 -38.023438 0 -36.574219 Z M 0 -36.574219 "/></g></g></g><g fill="#313bac" fill-opacity="1"><g transform="translate(145.664289, 48.856844)"><g><path d="M 7.707031 -4.300781 C 5.527344 -4.300781 3.683594 -6.140625 3.683594 -8.375 C 3.683594 -10.71875 5.527344 -12.507812 7.707031 -12.507812 L 10.554688 -12.507812 L 10.554688 -17.085938 L 7.707031 -17.085938 C 3.125 -17.085938 -0.949219 -13.402344 -0.949219 -8.375 C -0.949219 -3.460938 2.902344 0.390625 7.707031 0.390625 C 12.898438 0.390625 16.527344 -3.742188 16.527344 -8.542969 L 16.527344 -18.089844 C 16.527344 -23.003906 12.339844 -26.800781 7.707031 -26.800781 C 5.640625 -26.800781 3.796875 -26.074219 2.234375 -24.792969 C -0.167969 -22.78125 2.402344 -19.097656 4.914062 -21.105469 C 5.75 -21.777344 6.699219 -22.222656 7.707031 -22.222656 C 10.050781 -22.222656 11.949219 -20.324219 11.949219 -18.089844 L 11.949219 -8.542969 C 11.949219 -6.253906 10.105469 -4.300781 7.707031 -4.300781 Z M 7.707031 -4.300781 "/></g></g></g><g fill="#313bac" fill-opacity="1"><g transform="translate(166.044548, 48.856844)"><g><path d="M -0.0546875 -24.679688 L -0.0546875 -12.003906 C -0.0546875 -10.386719 0.671875 -8.265625 1.785156 -6.644531 C 3.460938 -4.691406 5.25 -2.625 6.867188 -0.671875 C 7.316406 -0.0546875 8.039062 0.277344 8.765625 0.277344 C 9.492188 0.277344 10.21875 0 10.664062 -0.558594 C 12.285156 -2.457031 13.960938 -4.523438 15.632812 -6.421875 L 15.578125 -6.421875 C 16.917969 -7.871094 17.421875 -10.273438 17.421875 -12.003906 L 17.421875 -24.679688 C 17.421875 -26.019531 16.304688 -26.914062 15.074219 -26.914062 C 13.960938 -26.914062 12.84375 -26.019531 12.84375 -24.679688 L 12.84375 -12.003906 C 12.84375 -11.167969 12.617188 -10.273438 12.0625 -9.492188 C 10.886719 -7.984375 9.9375 -6.644531 8.820312 -5.136719 L 5.359375 -9.492188 C 4.859375 -10.21875 4.632812 -11.167969 4.632812 -12.003906 L 4.632812 -24.679688 C 4.632812 -26.1875 3.460938 -26.914062 2.34375 -26.914062 C 1.171875 -26.914062 -0.0546875 -26.1875 -0.0546875 -24.679688 Z M -0.0546875 -24.679688 "/></g></g></g></svg>