<svg xmlns="http://www.w3.org/2000/svg" xmlns:xlink="http://www.w3.org/1999/xlink" width="300" height="90" preserveAspectRatio="xMidYMid meet" version="1.0" viewBox="0 0 224.88 67.5" zoomAndPan="magnify"><defs><clipPath id="id1"><path d="M 44 3 L 86 3 L 86 67.003906 L 44 67.003906 Z M 44 3" clip-rule="nonzero"/></clipPath></defs><g clip-path="url(#id1)"><g fill="#313bac" fill-opacity="1"><g><g><path d="M 41.292969 -8.097656 C 40.933594 -8.378906 39.664062 -8.496094 32.992188 -8.695312 C 33.828125 -12.109375 34.621094 -15.445312 35.335938 -18.460938 C 36.367188 -22.75 37.28125 -26.480469 37.796875 -28.746094 C 38.550781 -32.160156 38.988281 -34.660156 39.1875 -36.40625 C 39.347656 -38.195312 39.265625 -39.464844 38.351562 -39.78125 C 36.527344 -40.417969 34.144531 -36.210938 25.609375 -19.335938 C 23.902344 -15.960938 22.113281 -12.46875 20.328125 -9.050781 C 14.609375 -9.210938 9.332031 -9.332031 8.574219 -9.488281 C 8.140625 -9.570312 7.742188 -9.332031 7.664062 -8.894531 C 7.582031 -8.496094 7.859375 -8.097656 8.257812 -8.019531 C 9.09375 -7.820312 13.0625 -7.703125 19.574219 -7.542969 C 16.359375 -1.429688 13.222656 4.128906 10.71875 7.503906 C 9.410156 9.289062 8.179688 9.886719 7.066406 9.210938 C 4.128906 7.503906 1.867188 -2.582031 4.921875 -9.449219 C 7.542969 -15.363281 12.585938 -15.167969 16.359375 -13.976562 C 16.753906 -13.855469 17.191406 -14.09375 17.3125 -14.492188 C 17.429688 -14.890625 17.230469 -15.324219 16.792969 -15.445312 C 10.640625 -17.390625 5.914062 -15.484375 3.535156 -10.046875 C 0.515625 -3.296875 2.066406 8.097656 6.3125 10.5625 C 7.386719 11.15625 9.527344 11.710938 11.949219 8.417969 C 14.609375 4.84375 17.90625 -1.070312 21.242188 -7.503906 C 21.835938 -7.464844 22.433594 -7.464844 23.027344 -7.464844 C 25.648438 -7.386719 28.46875 -7.304688 31.085938 -7.226562 C 24.933594 18.976562 24.933594 22.433594 26.363281 23.027344 C 26.523438 23.066406 26.640625 23.105469 26.761719 23.105469 C 27.554688 23.105469 28.230469 22.113281 28.785156 21.160156 C 28.984375 20.804688 28.863281 20.328125 28.507812 20.089844 C 28.148438 19.890625 27.671875 20.011719 27.476562 20.367188 C 27.316406 20.605469 27.195312 20.804688 27.078125 20.964844 C 27.078125 19.535156 27.515625 15.882812 29.5 6.550781 C 30.453125 2.222656 31.523438 -2.542969 32.636719 -7.1875 C 36.6875 -7.066406 39.902344 -6.949219 40.539062 -6.789062 C 40.617188 -6.75 40.734375 -6.710938 40.855469 -6.710938 C 41.09375 -6.710938 41.332031 -6.828125 41.449219 -7.027344 C 41.6875 -7.386719 41.609375 -7.859375 41.292969 -8.097656 Z M 23.066406 -8.972656 C 22.710938 -8.972656 22.394531 -9.011719 22.035156 -9.011719 C 23.703125 -12.230469 25.371094 -15.484375 26.957031 -18.660156 C 30.96875 -26.5625 35.890625 -36.289062 37.71875 -38.074219 C 37.757812 -37.242188 37.640625 -35.019531 36.289062 -29.0625 C 35.8125 -26.800781 34.898438 -23.105469 33.867188 -18.820312 C 32.992188 -15.167969 32.160156 -11.832031 31.445312 -8.773438 C 29.222656 -8.8125 26.441406 -8.894531 23.066406 -8.972656 Z M 23.066406 -8.972656" transform="translate(43.679799, 43.924629)"/></g></g></g></g><g fill="#313bac" fill-opacity="1"><g><g><path d="M 15.960938 -8.855469 C 15.601562 -9.050781 15.128906 -8.933594 14.929688 -8.535156 C 13.976562 -6.910156 11.472656 -2.5 10.046875 -2.660156 C 9.765625 -2.699219 8.972656 -3.097656 8.179688 -5.875 C 7.625 -7.820312 6.867188 -9.648438 5.398438 -9.726562 C 4.328125 -9.808594 3.136719 -8.972656 1.308594 -5.558594 C 1.785156 -7.265625 2.304688 -8.972656 2.699219 -10.363281 C 2.859375 -10.878906 2.976562 -11.316406 3.097656 -11.753906 C 3.214844 -12.148438 2.976562 -12.585938 2.582031 -12.707031 C 2.183594 -12.824219 1.746094 -12.585938 1.628906 -12.148438 C 1.507812 -11.753906 1.390625 -11.277344 1.230469 -10.800781 C 0.199219 -7.265625 -1.351562 -1.90625 -1.746094 1.351562 C -1.785156 1.707031 -1.546875 2.066406 -1.191406 2.144531 C -1.113281 2.183594 -1.070312 2.183594 -0.992188 2.183594 C -0.675781 2.183594 -0.398438 1.984375 -0.277344 1.707031 C 3.453125 -7.582031 4.964844 -8.21875 5.320312 -8.21875 C 5.398438 -8.21875 5.957031 -8.058594 6.710938 -5.4375 C 7.503906 -2.699219 8.535156 -1.308594 9.886719 -1.152344 C 11.910156 -0.914062 13.738281 -3.414062 16.238281 -7.78125 C 16.476562 -8.179688 16.316406 -8.617188 15.960938 -8.855469 Z M 15.960938 -8.855469" transform="translate(87.272525, 43.924629)"/></g></g></g><g fill="#313bac" fill-opacity="1"><g><g><path d="M 15.800781 -8.574219 C 15.445312 -8.773438 14.96875 -8.65625 14.769531 -8.296875 C 10.996094 -2.261719 7.820312 0.4375 7.148438 0.199219 C 7.148438 0.199219 6.351562 -0.238281 7.105469 -4.804688 C 7.386719 -6.351562 7.503906 -7.226562 6.75 -7.542969 C 6.035156 -7.820312 5.597656 -7.226562 4.765625 -6.035156 C 4.089844 -5.082031 3.175781 -3.8125 2.183594 -2.9375 C 2.066406 -2.859375 1.628906 -2.460938 1.429688 -2.621094 C 0.832031 -3.097656 0.714844 -5.675781 2.105469 -8.058594 C 2.34375 -8.417969 2.183594 -8.894531 1.828125 -9.132812 C 1.46875 -9.332031 0.992188 -9.210938 0.792969 -8.855469 C -0.792969 -6.074219 -0.953125 -2.621094 0.4375 -1.46875 C 0.792969 -1.152344 1.785156 -0.59375 3.175781 -1.746094 C 4.089844 -2.542969 4.882812 -3.574219 5.519531 -4.445312 C 4.964844 -0.753906 5.28125 1.113281 6.589844 1.628906 C 6.789062 1.707031 6.988281 1.707031 7.148438 1.707031 C 10.164062 1.707031 15.046875 -5.914062 16.039062 -7.503906 C 16.277344 -7.859375 16.160156 -8.335938 15.800781 -8.574219 Z M 15.800781 -8.574219" transform="translate(101.446121, 43.924629)"/></g></g></g><g fill="#313bac" fill-opacity="1"><g><g><path d="M 16.753906 -8.894531 C 16.398438 -9.09375 15.921875 -8.972656 15.683594 -8.617188 C 13.578125 -5.199219 10.28125 -2.144531 6.3125 0.199219 C 8.019531 -2.144531 8.855469 -4.804688 8.8125 -6.433594 C 8.773438 -7.941406 8.058594 -8.378906 7.625 -8.496094 C 6.390625 -8.894531 4.765625 -7.664062 2.699219 -4.726562 C 1.984375 -3.773438 1.269531 -2.5 0.515625 -0.992188 C 1.707031 -6.433594 3.335938 -13.539062 4.566406 -18.859375 C 9.847656 -28.347656 12.546875 -35.496094 11.433594 -37.042969 C 11.195312 -37.402344 10.800781 -37.519531 10.402344 -37.441406 C 8.695312 -37.121094 6.035156 -31.324219 4.25 -23.980469 C 3.929688 -22.871094 3.574219 -21.242188 3.136719 -19.375 C 3.097656 -19.296875 3.097656 -19.214844 3.058594 -19.136719 C 0.914062 -9.925781 -2.582031 5.636719 -2.621094 6.949219 C -2.660156 7.34375 -2.382812 7.664062 -1.984375 7.742188 C -1.945312 7.742188 -1.90625 7.742188 -1.867188 7.742188 C -1.546875 7.742188 -1.230469 7.542969 -1.152344 7.1875 C -0.792969 6.152344 -0.4375 5.121094 -0.0390625 4.089844 C 0.160156 4.367188 0.515625 4.527344 0.875 4.40625 C 4.964844 2.9375 12.507812 -0.554688 16.992188 -7.820312 C 17.191406 -8.179688 17.113281 -8.65625 16.753906 -8.894531 Z M 10.125 -35.257812 C 9.808594 -33.667969 8.695312 -30.253906 6.035156 -24.894531 C 7.542969 -30.652344 9.171875 -33.90625 10.125 -35.257812 Z M 0.398438 2.9375 C 1.546875 0.199219 2.820312 -2.304688 3.929688 -3.851562 C 6.074219 -6.867188 7.027344 -7.027344 7.148438 -7.027344 C 7.226562 -6.949219 7.425781 -6.433594 7.1875 -5.242188 C 6.671875 -2.777344 4.488281 1.429688 0.398438 2.9375 Z M 0.398438 2.9375" transform="translate(115.65941, 43.924629)"/></g></g></g><g fill="#313bac" fill-opacity="1"><g><g><path d="M 18.78125 -9.050781 C 18.421875 -9.289062 17.945312 -9.171875 17.746094 -8.8125 C 12.109375 0.277344 10.125 0.078125 9.925781 0.0390625 C 9.527344 -0.078125 9.09375 -0.875 8.972656 -2.820312 C 8.933594 -3.691406 8.734375 -6.3125 6.988281 -6.550781 C 4.964844 -6.828125 2.542969 -3.296875 0.355469 1.269531 C 1.707031 -4.765625 3.652344 -13.0625 5.082031 -18.9375 C 10.402344 -28.507812 13.101562 -35.691406 11.992188 -37.242188 C 11.753906 -37.597656 11.355469 -37.71875 10.957031 -37.640625 C 9.25 -37.320312 6.589844 -31.523438 4.804688 -24.179688 C 4.726562 -23.902344 -2.382812 5.121094 -2.621094 8.695312 C -2.621094 9.09375 -2.382812 9.410156 -1.984375 9.488281 C -1.945312 9.488281 -1.90625 9.488281 -1.867188 9.488281 C -1.546875 9.488281 -1.230469 9.289062 -1.113281 9.011719 C 2.34375 -0.914062 5.71875 -5.042969 6.710938 -5.042969 C 6.75 -5.042969 6.75 -5.042969 6.75 -5.042969 C 6.910156 -5.042969 7.34375 -4.566406 7.464844 -2.738281 C 7.503906 -1.785156 7.703125 1.03125 9.527344 1.507812 C 10.324219 1.707031 12.664062 2.304688 19.019531 -8.019531 C 19.257812 -8.378906 19.136719 -8.855469 18.78125 -9.050781 Z M 10.679688 -35.457031 C 10.363281 -33.867188 9.25 -30.453125 6.589844 -25.09375 C 8.097656 -30.808594 9.726562 -34.105469 10.679688 -35.457031 Z M 10.679688 -35.457031" transform="translate(130.587341, 43.924629)"/></g></g></g><g fill="#313bac" fill-opacity="1"><g><g><path d="M 16.597656 -8.8125 C 16.238281 -8.972656 15.761719 -8.8125 15.601562 -8.457031 C 12.585938 -2.304688 10.324219 -0.355469 9.25 -0.554688 C 8.8125 -0.636719 7.386719 -1.46875 7.027344 -8.417969 C 7.027344 -8.734375 6.789062 -9.011719 6.511719 -9.09375 C 6.195312 -9.171875 5.835938 -9.09375 5.675781 -8.8125 C 5.4375 -8.535156 5.199219 -8.21875 4.964844 -7.859375 C 3.96875 -6.511719 2.660156 -4.683594 1.070312 -2.976562 C 0.832031 -2.699219 0.636719 -2.542969 0.515625 -2.460938 C 0.238281 -3.851562 1.707031 -9.171875 4.050781 -10.839844 C 4.726562 -11.316406 5.636719 -11.671875 6.867188 -10.242188 C 7.148438 -9.925781 7.625 -9.886719 7.941406 -10.164062 C 8.257812 -10.402344 8.296875 -10.917969 8.058594 -11.234375 C 6.550781 -12.984375 5.121094 -12.941406 4.167969 -12.625 C 1.113281 -11.554688 -0.953125 -5.675781 -1.03125 -2.976562 C -1.070312 -1.867188 -0.753906 -1.152344 -0.117188 -0.914062 C 0.875 -0.515625 1.867188 -1.589844 2.183594 -1.945312 C 3.535156 -3.414062 4.765625 -5.003906 5.636719 -6.234375 C 6.074219 -1.707031 7.148438 0.554688 8.933594 0.953125 C 9.09375 0.953125 9.25 0.992188 9.410156 0.992188 C 12.109375 0.992188 15.007812 -3.730469 16.953125 -7.78125 C 17.152344 -8.179688 16.992188 -8.617188 16.597656 -8.8125 Z M 16.597656 -8.8125" transform="translate(147.69888, 43.924629)"/></g></g></g><g fill="#313bac" fill-opacity="1"><g><g><path d="M 19.929688 -8.65625 C 19.613281 -8.933594 19.136719 -8.894531 18.859375 -8.574219 C 17.230469 -6.671875 15.046875 -5.71875 13.261719 -6.195312 C 11.792969 -6.589844 10.71875 -8.019531 10.324219 -10.164062 C 10.242188 -10.519531 9.886719 -10.757812 9.527344 -10.757812 C 9.171875 -10.757812 8.855469 -10.480469 8.8125 -10.125 C 7.980469 -4.167969 3.253906 2.9375 0.992188 3.691406 C 0.714844 3.773438 0.636719 3.730469 0.636719 3.691406 C 0.4375 3.535156 -0.914062 1.667969 3.296875 -10.839844 C 3.414062 -11.234375 3.214844 -11.671875 2.820312 -11.792969 C 2.421875 -11.949219 1.984375 -11.710938 1.828125 -11.316406 C -2.777344 2.460938 -1.03125 4.207031 -0.476562 4.765625 C -0.238281 4.964844 0.160156 5.28125 0.753906 5.28125 C 0.953125 5.28125 1.191406 5.242188 1.46875 5.121094 C 2.9375 4.644531 4.921875 2.542969 6.710938 -0.4375 C 8.058594 -2.660156 9.09375 -5.042969 9.726562 -7.265625 C 10.480469 -5.957031 11.554688 -5.082031 12.863281 -4.726562 C 15.207031 -4.128906 17.984375 -5.242188 20.011719 -7.582031 C 20.289062 -7.902344 20.25 -8.378906 19.929688 -8.65625 Z M 19.929688 -8.65625" transform="translate(162.467999, 43.924629)"/></g></g></g></svg>