<svg xmlns="http://www.w3.org/2000/svg" xmlns:xlink="http://www.w3.org/1999/xlink" width="300" height="90" preserveAspectRatio="xMidYMid meet" version="1.0" viewBox="0 0 224.88 67.5" zoomAndPan="magnify"><defs><clipPath id="id1"><path d="M 194 21 L 223.992188 21 L 223.992188 51 L 194 51 Z M 194 21" clip-rule="nonzero"/></clipPath></defs><g fill="#313bac" fill-opacity="1"><g><g><path d="M 2.226562 0 L 4.785156 0 C 7.179688 0 7.792969 -0.332031 8.238281 -1.667969 L 10.910156 -8.847656 L 26.214844 -8.847656 L 28.828125 -1.667969 C 29.21875 -0.332031 29.886719 0 32.28125 0 L 35.175781 0 C 36.566406 0 36.84375 -0.613281 36.398438 -1.835938 L 22.484375 -38.070312 C 22.09375 -39.292969 21.429688 -39.570312 20.148438 -39.570312 L 17.199219 -39.570312 C 15.917969 -39.570312 15.359375 -39.292969 14.859375 -38.011719 L 1 -1.835938 C 0.5 -0.613281 0.835938 0 2.226562 0 Z M 12.855469 -14.582031 L 17.140625 -26.382812 C 18.3125 -29.777344 18.3125 -33.058594 18.3125 -33.117188 L 18.757812 -33.117188 C 18.757812 -33.058594 18.867188 -29.777344 20.035156 -26.324219 L 24.265625 -14.582031 Z M 12.855469 -14.582031" transform="translate(1.158563, 50.789713)"/></g></g></g><g fill="#313bac" fill-opacity="1"><g><g><path d="M 5.230469 0 L 8.292969 0 C 9.574219 0 10.019531 -0.445312 10.019531 -1.726562 L 10.019531 -22.484375 C 10.019531 -22.707031 10.128906 -22.929688 10.351562 -23.042969 C 11.800781 -23.429688 13.582031 -23.765625 15.695312 -23.765625 C 19.8125 -23.765625 21.761719 -21.984375 21.761719 -18.3125 L 21.761719 -1.726562 C 21.761719 -0.445312 22.207031 0 23.488281 0 L 26.492188 0 C 27.773438 0 28.21875 -0.445312 28.21875 -1.726562 L 28.21875 -18.476562 C 28.21875 -25.546875 24.601562 -29.664062 16.640625 -29.664062 C 11.296875 -29.664062 7.957031 -28.664062 5.675781 -27.773438 C 3.953125 -27.050781 3.5625 -26.382812 3.5625 -24.601562 L 3.5625 -1.726562 C 3.5625 -0.445312 3.953125 0 5.230469 0 Z M 5.230469 0" transform="translate(38.614091, 50.789713)"/></g></g></g><g fill="#313bac" fill-opacity="1"><g><g><path d="M 14.972656 0.835938 C 20.316406 0.835938 23.652344 -0.222656 25.9375 -1.113281 C 27.660156 -1.835938 28.050781 -2.503906 28.050781 -4.230469 L 28.050781 -27.160156 C 28.050781 -28.441406 27.605469 -28.828125 26.324219 -28.828125 L 23.320312 -28.828125 C 22.039062 -28.828125 21.59375 -28.441406 21.59375 -27.160156 L 21.59375 -6.679688 C 21.59375 -6.234375 21.484375 -5.898438 20.984375 -5.734375 C 19.535156 -5.289062 18.03125 -5.066406 15.917969 -5.066406 C 11.800781 -5.066406 9.851562 -6.847656 9.851562 -10.574219 L 9.851562 -27.160156 C 9.851562 -28.441406 9.40625 -28.828125 8.125 -28.828125 L 5.066406 -28.828125 C 3.785156 -28.828125 3.394531 -28.441406 3.394531 -27.160156 L 3.394531 -10.351562 C 3.394531 -3.339844 7.011719 0.835938 14.972656 0.835938 Z M 14.972656 0.835938" transform="translate(70.225887, 50.789713)"/></g></g></g><g fill="#313bac" fill-opacity="1"><g><g><path d="M 15.640625 0.835938 C 24.15625 0.835938 28.21875 -3.339844 28.21875 -10.964844 L 28.21875 -18.476562 C 28.21875 -25.546875 24.601562 -29.664062 16.640625 -29.664062 C 13.914062 -29.664062 11.632812 -29.109375 10.019531 -28.71875 L 10.019531 -39.460938 C 10.019531 -40.742188 9.574219 -41.1875 8.292969 -41.1875 L 5.230469 -41.1875 C 3.953125 -41.1875 3.5625 -40.742188 3.5625 -39.460938 L 3.5625 -4.007812 C 3.5625 -2.226562 3.785156 -1.78125 5.566406 -0.945312 C 7.511719 -0.109375 11.1875 0.835938 15.640625 0.835938 Z M 15.195312 -5.066406 C 13.359375 -5.066406 11.742188 -5.289062 10.40625 -5.734375 C 10.019531 -5.898438 10.019531 -6.066406 10.019531 -6.34375 L 10.019531 -22.761719 C 11.355469 -23.207031 13.414062 -23.765625 15.75 -23.765625 C 19.648438 -23.765625 21.761719 -21.816406 21.761719 -18.3125 L 21.761719 -11.132812 C 21.761719 -7.011719 19.703125 -5.066406 15.195312 -5.066406 Z M 15.195312 -5.066406" transform="translate(101.837683, 50.789713)"/></g></g></g><g fill="#313bac" fill-opacity="1"><g><g><path d="M 5.34375 0 L 8.402344 0 C 9.683594 0 10.128906 -0.445312 10.128906 -1.726562 L 10.128906 -22.929688 C 10.628906 -23.207031 13.078125 -23.765625 15.804688 -23.765625 C 19.757812 -23.765625 21.871094 -21.871094 21.871094 -18.3125 L 21.871094 -1.726562 C 21.871094 -0.445312 22.316406 0 23.597656 0 L 26.605469 0 C 27.941406 0 28.328125 -0.445312 28.328125 -1.726562 L 28.328125 -18.476562 C 28.328125 -25.546875 24.710938 -29.664062 16.753906 -29.664062 C 13.46875 -29.664062 10.628906 -29.164062 10.128906 -28.886719 L 10.128906 -39.460938 C 10.128906 -40.742188 9.683594 -41.1875 8.402344 -41.1875 L 5.34375 -41.1875 C 4.0625 -41.1875 3.671875 -40.742188 3.671875 -39.460938 L 3.671875 -1.726562 C 3.671875 -0.445312 4.0625 0 5.34375 0 Z M 5.34375 0" transform="translate(132.781624, 50.789713)"/></g></g></g><g fill="#313bac" fill-opacity="1"><g><g><path d="M 14.527344 0.835938 C 19.089844 0.835938 22.484375 0.277344 24.542969 -0.613281 C 26.101562 -1.28125 26.546875 -1.835938 26.546875 -3.785156 L 26.546875 -18.199219 C 26.546875 -24.765625 23.820312 -29.664062 14.691406 -29.664062 C 8.847656 -29.664062 5.066406 -27.496094 3.117188 -23.875 C 2.449219 -22.597656 2.839844 -21.929688 4.0625 -21.371094 L 6.34375 -20.480469 C 7.570312 -19.980469 7.902344 -20.148438 8.683594 -21.316406 C 9.90625 -23.097656 11.742188 -23.988281 14.527344 -23.988281 C 18.757812 -23.988281 20.09375 -21.929688 20.09375 -18.421875 L 20.09375 -16.753906 C 19.144531 -16.863281 16.917969 -17.03125 14.75 -17.03125 C 5.84375 -17.03125 2.171875 -14.859375 2.171875 -8.179688 C 2.171875 -2.394531 4.675781 0.835938 14.527344 0.835938 Z M 13.914062 -4.507812 C 9.574219 -4.507812 8.683594 -6.011719 8.683594 -8.238281 C 8.683594 -10.574219 9.796875 -11.964844 14.027344 -11.964844 C 16.195312 -11.964844 18.980469 -11.742188 20.09375 -11.6875 L 20.09375 -5.734375 C 20.09375 -5.230469 19.925781 -5.121094 19.480469 -4.953125 C 18.535156 -4.730469 16.753906 -4.507812 13.914062 -4.507812 Z M 13.914062 -4.507812" transform="translate(164.504732, 50.789713)"/></g></g></g><g clip-path="url(#id1)"><g fill="#313bac" fill-opacity="1"><g><g><path d="M 13.859375 0.0546875 L 15.640625 0.0546875 C 16.917969 0.0546875 17.53125 -0.277344 17.976562 -1.503906 L 28.273438 -26.882812 C 28.886719 -28.441406 28.496094 -28.828125 26.828125 -28.828125 L 24.601562 -28.828125 C 22.539062 -28.828125 22.039062 -28.496094 21.539062 -27.105469 L 16.417969 -13.691406 C 15.417969 -11.019531 14.972656 -8.015625 14.914062 -7.792969 L 14.582031 -7.792969 C 14.527344 -8.015625 14.027344 -11.132812 13.023438 -13.746094 L 7.902344 -27.105469 C 7.402344 -28.496094 6.847656 -28.828125 4.785156 -28.828125 L 2.671875 -28.828125 C 1 -28.828125 0.613281 -28.441406 1.222656 -26.828125 L 11.464844 -1.503906 C 11.964844 -0.277344 12.578125 0.0546875 13.859375 0.0546875 Z M 13.859375 0.0546875" transform="translate(194.224274, 50.789713)"/></g></g></g></g></svg>