<svg xmlns="http://www.w3.org/2000/svg" xmlns:xlink="http://www.w3.org/1999/xlink" width="300" zoomAndPan="magnify" viewBox="0 0 224.87999 67.499998" height="90" preserveAspectRatio="xMidYMid meet" version="1.0"><defs><g/></defs><g fill="#313bac" fill-opacity="1"><g transform="translate(20.889591, 46.615215)"><g><path d="M 43.355469 -12.96875 C 41.410156 -8.238281 38.847656 -3.507812 36.734375 -3.507812 C 35.007812 -3.507812 34.0625 -6.121094 34.0625 -13.246094 C 34.0625 -23.265625 36.84375 -34.339844 36.84375 -37.34375 C 36.84375 -38.515625 35.953125 -39.347656 34.5625 -39.347656 C 30.722656 -39.347656 26.546875 -31.222656 21.59375 -20.539062 C 21.148438 -19.648438 20.761719 -18.757812 20.371094 -17.867188 C 19.480469 -17.867188 18.589844 -17.808594 17.753906 -17.808594 C 16.53125 -17.808594 15.359375 -17.867188 14.25 -17.921875 C 13.191406 -17.976562 12.410156 -17.199219 12.410156 -16.195312 C 12.410156 -15.304688 13.078125 -14.582031 14.136719 -14.527344 C 15.582031 -14.46875 17.140625 -14.46875 18.757812 -14.46875 C 15.417969 -7.792969 12.523438 -3.339844 8.515625 -3.339844 C 5.511719 -3.339844 4.84375 -5.734375 3.226562 -5.734375 C 2.503906 -5.734375 1.890625 -5.066406 1.890625 -4.117188 C 1.890625 -2.003906 5.007812 0.167969 8.515625 0.167969 C 15.527344 0.167969 19.367188 -6.566406 23.097656 -14.636719 L 30.222656 -15.136719 C 30.164062 -14.136719 30.164062 -13.078125 30.164062 -11.964844 C 30.164062 -2.839844 33.117188 0 36.789062 0 C 40.90625 0 43.914062 -6.066406 46.027344 -11.800781 C 46.140625 -12.078125 46.195312 -12.355469 46.195312 -12.578125 C 46.195312 -13.523438 45.527344 -14.191406 44.804688 -14.191406 C 44.300781 -14.191406 43.746094 -13.859375 43.355469 -12.96875 Z M 30.445312 -18.476562 C 28.609375 -18.367188 26.660156 -18.199219 24.65625 -18.089844 C 24.933594 -18.644531 25.15625 -19.203125 25.433594 -19.757812 C 27.605469 -24.542969 31.78125 -33.894531 32.503906 -33.894531 C 32.894531 -33.894531 31.113281 -27.4375 30.445312 -18.476562 Z M 30.445312 -18.476562 "/></g></g></g><g fill="#313bac" fill-opacity="1"><g transform="translate(62.407907, 46.615215)"><g><path d="M 24.933594 -12.96875 C 22.09375 -6.179688 20.648438 -3.449219 19.203125 -3.449219 C 18.367188 -3.449219 17.808594 -4.007812 17.808594 -5.34375 C 17.808594 -8.90625 18.699219 -14.359375 18.699219 -16.976562 C 18.699219 -20.035156 16.640625 -22.09375 13.582031 -22.09375 C 10.6875 -22.09375 7.957031 -20.425781 5.84375 -17.253906 C 5.957031 -18.421875 6.066406 -19.480469 6.066406 -20.203125 C 6.066406 -21.429688 5.230469 -22.039062 4.339844 -22.039062 C 3.449219 -22.039062 2.503906 -21.371094 2.394531 -20.148438 C 2.003906 -15.75 1.390625 -6.179688 1.390625 -1.78125 C 1.390625 -0.554688 2.28125 0.0546875 3.171875 0.0546875 C 4.117188 0.0546875 5.066406 -0.554688 5.066406 -1.78125 C 5.066406 -3.730469 5.121094 -5.84375 5.230469 -8.015625 C 5.957031 -14.191406 9.683594 -18.699219 12.691406 -18.699219 C 14.191406 -18.699219 15.027344 -17.808594 15.027344 -16.085938 C 15.027344 -14.191406 14.136719 -9.128906 14.136719 -5.675781 C 14.136719 -1.835938 15.972656 0 18.644531 0 C 21.816406 0 23.988281 -2.671875 27.605469 -11.800781 C 27.71875 -12.078125 27.773438 -12.355469 27.773438 -12.578125 C 27.773438 -13.46875 27.105469 -14.082031 26.382812 -14.082031 C 25.824219 -14.082031 25.269531 -13.746094 24.933594 -12.96875 Z M 24.933594 -12.96875 "/></g></g></g><g fill="#313bac" fill-opacity="1"><g transform="translate(85.504559, 46.615215)"><g><path d="M 26.101562 -12.96875 C 23.542969 -6.566406 21.816406 -3.285156 20.480469 -3.285156 C 19.089844 -3.285156 18.535156 -5.289062 18.535156 -10.074219 C 18.535156 -12.578125 18.699219 -15.804688 19.425781 -20.480469 C 19.589844 -21.59375 18.8125 -22.429688 17.753906 -22.429688 C 16.695312 -22.429688 15.972656 -21.816406 15.863281 -20.816406 C 15.640625 -18.699219 15.359375 -16.363281 15.195312 -13.96875 C 14.304688 -6.625 10.851562 -3.285156 7.679688 -3.285156 C 5.789062 -3.285156 4.84375 -4.285156 4.84375 -6.34375 C 4.84375 -9.574219 6.179688 -15.359375 6.179688 -19.425781 C 6.179688 -21.484375 4.5625 -23.265625 2.617188 -23.265625 C 1.558594 -23.265625 0.835938 -22.597656 0.835938 -21.648438 C 0.835938 -20.203125 2.449219 -20.539062 2.449219 -18.421875 C 2.449219 -15.582031 1.167969 -10.40625 1.167969 -6.121094 C 1.167969 -2.335938 3.730469 0.167969 7.402344 0.167969 C 10.519531 0.167969 13.300781 -1.613281 15.359375 -5.398438 C 16.140625 -1.335938 18.03125 0.167969 20.148438 0.167969 C 23.265625 0.167969 25.433594 -2.894531 28.773438 -11.800781 C 28.886719 -12.078125 28.941406 -12.300781 28.941406 -12.523438 C 28.941406 -13.46875 28.21875 -14.082031 27.496094 -14.082031 C 26.992188 -14.082031 26.4375 -13.746094 26.101562 -12.96875 Z M 26.101562 -12.96875 "/></g></g></g><g fill="#313bac" fill-opacity="1"><g transform="translate(109.769953, 46.615215)"><g><path d="M 24.210938 -12.96875 C 23.265625 -10.464844 21.761719 -8.847656 20.09375 -8.015625 C 20.648438 -9.683594 20.984375 -11.464844 20.984375 -13.300781 C 20.984375 -19.035156 17.976562 -22.039062 13.914062 -22.039062 C 9.90625 -22.039062 7.070312 -18.980469 7.070312 -14.414062 C 7.070312 -9.351562 10.183594 -5.84375 14.027344 -4.730469 C 13.191406 -3.894531 12.132812 -3.339844 11.019531 -3.339844 C 8.238281 -3.339844 5.34375 -6.34375 5.34375 -15.527344 C 5.34375 -18.699219 5.621094 -21.59375 6.121094 -24.210938 C 6.734375 -24.15625 7.289062 -24.15625 7.957031 -24.15625 C 15.75 -24.15625 20.816406 -28.996094 20.816406 -33.785156 C 20.816406 -36.957031 18.3125 -39.515625 14.636719 -39.515625 C 9.628906 -39.515625 5.566406 -35.34375 3.394531 -28.21875 C 2.949219 -28.386719 2.558594 -28.496094 2.171875 -28.496094 C 1.167969 -28.496094 0.5 -27.71875 0.5 -26.882812 C 0.5 -26.214844 0.945312 -25.492188 2.003906 -25.101562 C 2.171875 -25.046875 2.394531 -24.988281 2.558594 -24.878906 C 2.003906 -21.984375 1.667969 -18.644531 1.667969 -15.027344 C 1.667969 -4.117188 5.898438 0.109375 10.796875 0.109375 C 13.859375 0.109375 16.53125 -1.667969 18.3125 -4.398438 C 21.761719 -4.84375 25.15625 -7.234375 26.882812 -11.800781 C 26.992188 -12.078125 27.050781 -12.300781 27.050781 -12.523438 C 27.050781 -13.414062 26.324219 -14.027344 25.601562 -14.027344 C 25.046875 -14.027344 24.488281 -13.691406 24.210938 -12.96875 Z M 14.527344 -36.066406 C 16.140625 -36.066406 17.199219 -35.007812 17.199219 -33.503906 C 17.199219 -30.777344 13.914062 -27.496094 8.347656 -27.496094 C 7.847656 -27.496094 7.402344 -27.496094 6.957031 -27.550781 C 8.625 -32.78125 11.355469 -36.066406 14.527344 -36.066406 Z M 10.519531 -14.25 C 10.519531 -16.863281 12.078125 -18.589844 13.804688 -18.589844 C 15.695312 -18.589844 17.308594 -17.03125 17.308594 -13.636719 C 17.308594 -11.6875 16.808594 -9.351562 15.917969 -7.457031 C 12.914062 -8.125 10.519531 -10.796875 10.519531 -14.25 Z M 10.519531 -14.25 "/></g></g></g><g fill="#313bac" fill-opacity="1"><g transform="translate(132.143093, 46.615215)"><g><path d="M 26.546875 -12.96875 C 23.765625 -6.179688 21.539062 -3.507812 19.535156 -3.507812 C 18.367188 -3.507812 17.644531 -4.230469 17.644531 -5.398438 C 17.644531 -7.792969 20.371094 -13.914062 20.371094 -17.699219 C 20.371094 -20.871094 17.976562 -23.097656 14.636719 -23.097656 C 11.296875 -23.097656 7.847656 -20.816406 5.621094 -16.53125 C 5.734375 -19.3125 5.898438 -21.816406 6.234375 -24.042969 L 6.847656 -24.042969 C 14.582031 -24.042969 19.203125 -28.550781 19.203125 -33.28125 C 19.203125 -36.84375 16.640625 -39.460938 12.914062 -39.460938 C 8.238281 -39.460938 4.84375 -35.398438 3.171875 -27.828125 C 2.558594 -27.941406 2.226562 -28.050781 1.890625 -28.050781 C 0.945312 -28.050781 0.390625 -27.328125 0.390625 -26.492188 C 0.390625 -25.769531 0.835938 -24.988281 1.890625 -24.710938 L 2.558594 -24.542969 C 2.171875 -21.707031 1.949219 -18.476562 1.949219 -14.859375 C 1.949219 -13.859375 1.949219 -12.800781 1.949219 -11.800781 C 1.949219 -8.683594 2.003906 -5.511719 2.226562 -2.171875 C 2.335938 -0.722656 3.226562 0 4.117188 0 C 5.066406 0 6.066406 -0.835938 5.957031 -2.28125 C 5.84375 -4.007812 5.734375 -5.566406 5.675781 -7.070312 C 6.066406 -15.195312 11.132812 -19.8125 14.191406 -19.8125 C 15.804688 -19.8125 16.695312 -18.921875 16.695312 -17.253906 C 16.695312 -14.191406 13.96875 -8.738281 13.96875 -5.230469 C 13.96875 -2.113281 16.027344 -0.0546875 19.203125 -0.0546875 C 22.539062 -0.0546875 25.714844 -2.558594 29.21875 -11.800781 C 29.332031 -12.078125 29.386719 -12.300781 29.386719 -12.578125 C 29.386719 -13.46875 28.664062 -14.082031 27.941406 -14.082031 C 27.4375 -14.082031 26.882812 -13.746094 26.546875 -12.96875 Z M 12.746094 -36.007812 C 14.46875 -36.007812 15.582031 -34.898438 15.582031 -33.171875 C 15.582031 -30.386719 12.691406 -27.382812 7.402344 -27.382812 L 6.789062 -27.382812 C 8.015625 -33.117188 10.074219 -36.007812 12.746094 -36.007812 Z M 12.746094 -36.007812 "/></g></g></g><g fill="#313bac" fill-opacity="1"><g transform="translate(156.853736, 46.615215)"><g><path d="M 27.4375 -12.96875 C 24.765625 -6.34375 22.984375 -3.226562 21.539062 -3.226562 C 20.371094 -3.226562 19.480469 -4.175781 19.480469 -7.402344 C 19.480469 -12.855469 20.257812 -19.367188 20.257812 -20.539062 C 20.257812 -21.707031 19.480469 -22.429688 18.535156 -22.429688 C 17.585938 -22.429688 16.863281 -21.707031 16.472656 -20.59375 C 15.027344 -21.648438 13.246094 -22.152344 11.800781 -22.152344 C 6.566406 -22.152344 1.335938 -16.863281 1.335938 -9.128906 C 1.335938 -3.171875 4.675781 0.222656 8.960938 0.222656 C 11.464844 0.222656 13.96875 -0.945312 16.195312 -4.339844 C 17.03125 -1.28125 18.8125 0.222656 21.316406 0.222656 C 24.542969 0.222656 27.050781 -3.449219 30.109375 -11.800781 C 30.222656 -12.078125 30.277344 -12.355469 30.277344 -12.578125 C 30.277344 -13.46875 29.609375 -14.082031 28.886719 -14.082031 C 28.328125 -14.082031 27.773438 -13.746094 27.4375 -12.96875 Z M 9.515625 -3.226562 C 6.902344 -3.226562 5.007812 -5.121094 5.007812 -9.292969 C 5.007812 -15.082031 8.738281 -18.867188 12.46875 -18.867188 C 14.082031 -18.867188 15.695312 -17.976562 16.195312 -17.199219 C 16.308594 -8.460938 13.414062 -3.226562 9.515625 -3.226562 Z M 9.515625 -3.226562 "/></g></g></g><g fill="#313bac" fill-opacity="1"><g transform="translate(182.454833, 46.615215)"><g><path d="M 23.429688 -12.96875 C 22.597656 -11.019531 21.539062 -10.128906 20.539062 -10.128906 C 19.757812 -10.128906 18.980469 -10.628906 18.421875 -11.578125 C 18.867188 -13.246094 19.089844 -15.027344 19.089844 -16.917969 C 19.089844 -20.648438 17.976562 -22.261719 16.363281 -22.261719 C 14.914062 -22.261719 13.636719 -20.816406 13.636719 -17.140625 C 13.636719 -15.027344 13.96875 -13.191406 14.582031 -11.742188 C 13.078125 -6.066406 9.015625 -3.285156 7.125 -3.285156 C 5.898438 -3.285156 5.066406 -4.230469 5.066406 -6.679688 C 5.066406 -11.242188 6.066406 -14.414062 6.066406 -20.148438 C 6.066406 -21.484375 5.453125 -22.152344 4.285156 -22.152344 C 3.171875 -22.152344 2.394531 -21.316406 2.394531 -20.035156 C 2.394531 -14.414062 1.390625 -11.964844 1.390625 -6.902344 C 1.390625 -2.28125 3.394531 0.167969 6.957031 0.167969 C 10.6875 0.167969 14.859375 -3.171875 17.199219 -8.238281 C 18.199219 -7.457031 19.367188 -7.070312 20.539062 -7.070312 C 22.597656 -7.070312 24.824219 -8.515625 26.101562 -11.800781 C 26.214844 -12.023438 26.214844 -12.246094 26.214844 -12.46875 C 26.214844 -13.359375 25.546875 -14.136719 24.824219 -14.136719 C 24.320312 -14.136719 23.765625 -13.804688 23.429688 -12.96875 Z M 23.429688 -12.96875 "/></g></g></g></svg>