<svg xmlns="http://www.w3.org/2000/svg" xmlns:xlink="http://www.w3.org/1999/xlink" width="500" height="170" preserveAspectRatio="xMidYMid meet" version="1.0" viewBox="0 0 375 127.5" zoomAndPan="magnify"><g fill="#60527f" fill-opacity="1"><g><g><path d="M 81.574219 -24.398438 C 77.910156 -15.496094 73.09375 -6.597656 69.113281 -6.597656 C 65.867188 -6.597656 64.085938 -11.519531 64.085938 -24.921875 C 64.085938 -43.769531 69.320312 -64.609375 69.320312 -70.265625 C 69.320312 -72.464844 67.648438 -74.035156 65.027344 -74.035156 C 57.804688 -74.035156 49.949219 -58.746094 40.628906 -38.640625 C 39.792969 -36.964844 39.058594 -35.289062 38.324219 -33.613281 C 36.652344 -33.613281 34.976562 -33.507812 33.40625 -33.507812 C 31.101562 -33.507812 28.902344 -33.613281 26.808594 -33.71875 C 24.816406 -33.824219 23.351562 -32.355469 23.351562 -30.472656 C 23.351562 -28.796875 24.609375 -27.4375 26.597656 -27.332031 C 29.320312 -27.226562 32.253906 -27.226562 35.289062 -27.226562 C 29.007812 -14.660156 23.5625 -6.28125 16.023438 -6.28125 C 10.367188 -6.28125 9.109375 -10.785156 6.074219 -10.785156 C 4.710938 -10.785156 3.558594 -9.527344 3.558594 -7.75 C 3.558594 -3.769531 9.425781 0.3125 16.023438 0.3125 C 29.214844 0.3125 36.441406 -12.355469 43.457031 -27.539062 L 56.859375 -28.484375 C 56.757812 -26.597656 56.757812 -24.609375 56.757812 -22.515625 C 56.757812 -5.339844 62.304688 0 69.21875 0 C 76.964844 0 82.621094 -11.414062 86.601562 -22.199219 C 86.808594 -22.722656 86.914062 -23.246094 86.914062 -23.664062 C 86.914062 -25.445312 85.65625 -26.703125 84.296875 -26.703125 C 83.355469 -26.703125 82.308594 -26.074219 81.574219 -24.398438 Z M 57.28125 -34.765625 C 53.824219 -34.554688 50.160156 -34.242188 46.390625 -34.03125 C 46.914062 -35.078125 47.332031 -36.128906 47.855469 -37.175781 C 51.9375 -46.179688 59.792969 -63.773438 61.152344 -63.773438 C 61.886719 -63.773438 58.535156 -51.625 57.28125 -34.765625 Z M 57.28125 -34.765625" transform="translate(15.254809, 88.373127)"/></g></g></g><g fill="#60527f" fill-opacity="1"><g><g><path d="M 46.914062 -24.398438 C 41.574219 -11.625 38.851562 -6.492188 36.128906 -6.492188 C 34.554688 -6.492188 33.507812 -7.539062 33.507812 -10.054688 C 33.507812 -16.753906 35.183594 -27.015625 35.183594 -31.9375 C 35.183594 -37.699219 31.308594 -41.574219 25.550781 -41.574219 C 20.105469 -41.574219 14.972656 -38.429688 10.996094 -32.460938 C 11.203125 -34.660156 11.414062 -36.652344 11.414062 -38.011719 C 11.414062 -40.316406 9.84375 -41.46875 8.167969 -41.46875 C 6.492188 -41.46875 4.710938 -40.210938 4.503906 -37.90625 C 3.769531 -29.632812 2.617188 -11.625 2.617188 -3.351562 C 2.617188 -1.046875 4.292969 0.105469 5.96875 0.105469 C 7.75 0.105469 9.527344 -1.046875 9.527344 -3.351562 C 9.527344 -7.015625 9.632812 -10.996094 9.84375 -15.078125 C 11.203125 -26.703125 18.21875 -35.183594 23.875 -35.183594 C 26.703125 -35.183594 28.273438 -33.507812 28.273438 -30.261719 C 28.273438 -26.703125 26.597656 -17.171875 26.597656 -10.679688 C 26.597656 -3.457031 30.054688 0 35.078125 0 C 41.046875 0 45.132812 -5.027344 51.9375 -22.199219 C 52.148438 -22.722656 52.253906 -23.246094 52.253906 -23.664062 C 52.253906 -25.339844 50.996094 -26.492188 49.636719 -26.492188 C 48.589844 -26.492188 47.542969 -25.863281 46.914062 -24.398438 Z M 46.914062 -24.398438" transform="translate(93.369363, 88.373127)"/></g></g></g><g fill="#60527f" fill-opacity="1"><g><g><path d="M 49.113281 -24.398438 C 44.292969 -12.355469 41.046875 -6.179688 38.535156 -6.179688 C 35.917969 -6.179688 34.871094 -9.949219 34.871094 -18.953125 C 34.871094 -23.664062 35.183594 -29.738281 36.546875 -38.535156 C 36.859375 -40.628906 35.394531 -42.199219 33.40625 -42.199219 C 31.414062 -42.199219 30.054688 -41.046875 29.84375 -39.164062 C 29.425781 -35.183594 28.902344 -30.785156 28.585938 -26.285156 C 26.910156 -12.460938 20.417969 -6.179688 14.449219 -6.179688 C 10.890625 -6.179688 9.109375 -8.0625 9.109375 -11.9375 C 9.109375 -18.011719 11.625 -28.902344 11.625 -36.546875 C 11.625 -40.421875 8.585938 -43.769531 4.921875 -43.769531 C 2.933594 -43.769531 1.570312 -42.515625 1.570312 -40.734375 C 1.570312 -38.011719 4.609375 -38.640625 4.609375 -34.660156 C 4.609375 -29.320312 2.199219 -19.582031 2.199219 -11.519531 C 2.199219 -4.398438 7.015625 0.3125 13.925781 0.3125 C 19.792969 0.3125 25.027344 -3.035156 28.902344 -10.15625 C 30.367188 -2.511719 33.929688 0.3125 37.90625 0.3125 C 43.769531 0.3125 47.855469 -5.445312 54.136719 -22.199219 C 54.347656 -22.722656 54.453125 -23.140625 54.453125 -23.5625 C 54.453125 -25.339844 53.089844 -26.492188 51.730469 -26.492188 C 50.789062 -26.492188 49.738281 -25.863281 49.113281 -24.398438 Z M 49.113281 -24.398438" transform="translate(136.824512, 88.373127)"/></g></g></g><g fill="#60527f" fill-opacity="1"><g><g><path d="M 45.550781 -24.398438 C 43.769531 -19.6875 40.945312 -16.648438 37.800781 -15.078125 C 38.851562 -18.21875 39.476562 -21.570312 39.476562 -25.027344 C 39.476562 -35.8125 33.824219 -41.46875 26.179688 -41.46875 C 18.640625 -41.46875 13.300781 -35.707031 13.300781 -27.121094 C 13.300781 -17.59375 19.164062 -10.996094 26.386719 -8.902344 C 24.816406 -7.332031 22.828125 -6.28125 20.734375 -6.28125 C 15.496094 -6.28125 10.054688 -11.9375 10.054688 -29.214844 C 10.054688 -35.183594 10.578125 -40.628906 11.519531 -45.550781 C 12.671875 -45.445312 13.71875 -45.445312 14.972656 -45.445312 C 29.632812 -45.445312 39.164062 -54.558594 39.164062 -63.5625 C 39.164062 -69.53125 34.453125 -74.347656 27.539062 -74.347656 C 18.117188 -74.347656 10.472656 -66.496094 6.386719 -53.089844 C 5.550781 -53.40625 4.816406 -53.613281 4.082031 -53.613281 C 2.199219 -53.613281 0.941406 -52.148438 0.941406 -50.578125 C 0.941406 -49.320312 1.78125 -47.960938 3.769531 -47.226562 C 4.082031 -47.121094 4.503906 -47.015625 4.816406 -46.808594 C 3.769531 -41.363281 3.140625 -35.078125 3.140625 -28.273438 C 3.140625 -7.75 11.101562 0.210938 20.316406 0.210938 C 26.074219 0.210938 31.101562 -3.140625 34.453125 -8.273438 C 40.945312 -9.109375 47.332031 -13.613281 50.578125 -22.199219 C 50.789062 -22.722656 50.890625 -23.140625 50.890625 -23.5625 C 50.890625 -25.238281 49.53125 -26.386719 48.167969 -26.386719 C 47.121094 -26.386719 46.074219 -25.761719 45.550781 -24.398438 Z M 27.332031 -67.855469 C 30.367188 -67.855469 32.355469 -65.867188 32.355469 -63.039062 C 32.355469 -57.90625 26.179688 -51.730469 15.707031 -51.730469 C 14.765625 -51.730469 13.925781 -51.730469 13.089844 -51.835938 C 16.230469 -61.679688 21.363281 -67.855469 27.332031 -67.855469 Z M 19.792969 -26.808594 C 19.792969 -31.730469 22.722656 -34.976562 25.96875 -34.976562 C 29.53125 -34.976562 32.566406 -32.042969 32.566406 -25.65625 C 32.566406 -21.992188 31.625 -17.59375 29.949219 -14.03125 C 24.292969 -15.289062 19.792969 -20.316406 19.792969 -26.808594 Z M 19.792969 -26.808594" transform="translate(182.478592, 88.373127)"/></g></g></g><g fill="#60527f" fill-opacity="1"><g><g><path d="M 49.949219 -24.398438 C 44.714844 -11.625 40.523438 -6.597656 36.753906 -6.597656 C 34.554688 -6.597656 33.195312 -7.957031 33.195312 -10.15625 C 33.195312 -14.660156 38.324219 -26.179688 38.324219 -33.300781 C 38.324219 -39.269531 33.824219 -43.457031 27.539062 -43.457031 C 21.257812 -43.457031 14.765625 -39.164062 10.578125 -31.101562 C 10.785156 -36.335938 11.101562 -41.046875 11.726562 -45.238281 L 12.878906 -45.238281 C 27.4375 -45.238281 36.128906 -53.71875 36.128906 -62.621094 C 36.128906 -69.320312 31.308594 -74.242188 24.292969 -74.242188 C 15.496094 -74.242188 9.109375 -66.597656 5.96875 -52.359375 C 4.816406 -52.566406 4.1875 -52.777344 3.558594 -52.777344 C 1.78125 -52.777344 0.734375 -51.414062 0.734375 -49.84375 C 0.734375 -48.484375 1.570312 -47.015625 3.558594 -46.492188 L 4.816406 -46.179688 C 4.082031 -40.839844 3.664062 -34.765625 3.664062 -27.960938 C 3.664062 -26.074219 3.664062 -24.085938 3.664062 -22.199219 C 3.664062 -16.335938 3.769531 -10.367188 4.1875 -4.082031 C 4.398438 -1.359375 6.074219 0 7.75 0 C 9.527344 0 11.414062 -1.570312 11.203125 -4.292969 C 10.996094 -7.539062 10.785156 -10.472656 10.679688 -13.300781 C 11.414062 -28.585938 20.941406 -37.277344 26.703125 -37.277344 C 29.738281 -37.277344 31.414062 -35.601562 31.414062 -32.460938 C 31.414062 -26.703125 26.285156 -16.441406 26.285156 -9.84375 C 26.285156 -3.980469 30.160156 -0.105469 36.128906 -0.105469 C 42.410156 -0.105469 48.378906 -4.816406 54.976562 -22.199219 C 55.183594 -22.722656 55.289062 -23.140625 55.289062 -23.664062 C 55.289062 -25.339844 53.929688 -26.492188 52.566406 -26.492188 C 51.625 -26.492188 50.578125 -25.863281 49.949219 -24.398438 Z M 23.980469 -67.75 C 27.226562 -67.75 29.320312 -65.65625 29.320312 -62.410156 C 29.320312 -57.175781 23.875 -51.519531 13.925781 -51.519531 L 12.773438 -51.519531 C 15.078125 -62.304688 18.953125 -67.75 23.980469 -67.75 Z M 23.980469 -67.75" transform="translate(224.572493, 88.373127)"/></g></g></g><g fill="#60527f" fill-opacity="1"><g><g><path d="M 51.625 -24.398438 C 46.597656 -11.9375 43.246094 -6.074219 40.523438 -6.074219 C 38.324219 -6.074219 36.652344 -7.855469 36.652344 -13.925781 C 36.652344 -24.1875 38.117188 -36.441406 38.117188 -38.640625 C 38.117188 -40.839844 36.652344 -42.199219 34.871094 -42.199219 C 33.089844 -42.199219 31.730469 -40.839844 30.996094 -38.746094 C 28.273438 -40.734375 24.921875 -41.675781 22.199219 -41.675781 C 12.355469 -41.675781 2.511719 -31.730469 2.511719 -17.171875 C 2.511719 -5.96875 8.796875 0.417969 16.859375 0.417969 C 21.570312 0.417969 26.285156 -1.78125 30.472656 -8.167969 C 32.042969 -2.410156 35.394531 0.417969 40.105469 0.417969 C 46.179688 0.417969 50.890625 -6.492188 56.652344 -22.199219 C 56.859375 -22.722656 56.964844 -23.246094 56.964844 -23.664062 C 56.964844 -25.339844 55.707031 -26.492188 54.347656 -26.492188 C 53.300781 -26.492188 52.253906 -25.863281 51.625 -24.398438 Z M 17.90625 -6.074219 C 12.984375 -6.074219 9.425781 -9.632812 9.425781 -17.488281 C 9.425781 -28.378906 16.441406 -35.5 23.457031 -35.5 C 26.492188 -35.5 29.53125 -33.824219 30.472656 -32.355469 C 30.683594 -15.917969 25.238281 -6.074219 17.90625 -6.074219 Z M 17.90625 -6.074219" transform="translate(271.064258, 88.373127)"/></g></g></g><g fill="#60527f" fill-opacity="1"><g><g><path d="M 44.085938 -24.398438 C 42.515625 -20.734375 40.523438 -19.058594 38.640625 -19.058594 C 37.175781 -19.058594 35.707031 -20 34.660156 -21.78125 C 35.5 -24.921875 35.917969 -28.273438 35.917969 -31.832031 C 35.917969 -38.851562 33.824219 -41.886719 30.785156 -41.886719 C 28.0625 -41.886719 25.65625 -39.164062 25.65625 -32.253906 C 25.65625 -28.273438 26.285156 -24.816406 27.4375 -22.09375 C 24.609375 -11.414062 16.964844 -6.179688 13.402344 -6.179688 C 11.101562 -6.179688 9.527344 -7.957031 9.527344 -12.566406 C 9.527344 -21.152344 11.414062 -27.121094 11.414062 -37.90625 C 11.414062 -40.421875 10.261719 -41.675781 8.0625 -41.675781 C 5.96875 -41.675781 4.503906 -40.105469 4.503906 -37.699219 C 4.503906 -27.121094 2.617188 -22.515625 2.617188 -12.984375 C 2.617188 -4.292969 6.386719 0.3125 13.089844 0.3125 C 20.105469 0.3125 27.960938 -5.96875 32.355469 -15.496094 C 34.242188 -14.03125 36.441406 -13.300781 38.640625 -13.300781 C 42.515625 -13.300781 46.703125 -16.023438 49.113281 -22.199219 C 49.320312 -22.617188 49.320312 -23.039062 49.320312 -23.457031 C 49.320312 -25.132812 48.066406 -26.597656 46.703125 -26.597656 C 45.761719 -26.597656 44.714844 -25.96875 44.085938 -24.398438 Z M 44.085938 -24.398438" transform="translate(319.231405, 88.373127)"/></g></g></g></svg>