<svg width="2130" height="2887" viewBox="0 0 2130 2887" fill="none" xmlns="http://www.w3.org/2000/svg">
<path d="M1494.5 1050.5C1373.3 1138.9 1219 1179.5 1028.5 1221C821.5 1211.5 783.5 1076.01 700.5 978.499C575.5 1022 420 1113.5 359 1153C289 1157 93 1849 31.0003 2049C-30.9995 2249 31.0003 2573 5.00016 2587.5C-21 2602 67.0003 2695 31.0003 2689C2.20027 2684.2 19.0003 2818.67 31.0003 2886.5H1517H1939.5C2008.5 2868 2143 2825 2128.5 2482C1939.5 1759.5 1998 1263.5 1494.5 1050.5Z" fill="#CD8332"/>
<path d="M2000.5 2374.5C1935.83 2359.5 1789.5 2332.1 1721.5 2342.5" stroke="#FFCC66" stroke-width="10"/>
<path d="M1683 2057C1895.4 2052.6 1955.5 2094.17 1959 2115.5" stroke="#FFCC66" stroke-width="10"/>
<path d="M1647 2718.5C1680.67 2730.83 1750.7 2763 1761.5 2793C1775 2830.5 1868.5 2872 1887 2874.5" stroke="#FFCC66" stroke-width="10"/>
<path d="M1611 2814.5C1629.67 2832.67 1677.4 2870.6 1719 2877" stroke="#FFCC66" stroke-width="10"/>
<path d="M1689.5 2667.5C1717.5 2698.33 1795.9 2770.9 1885.5 2814.5" stroke="#FFCC66" stroke-width="10"/>
<path d="M1725.5 2573C1781.5 2586.17 1906.6 2634.7 1959 2723.5" stroke="#AB5816" stroke-width="10"/>
<path d="M1717.5 2506.5C1729.5 2519.67 1771.4 2539.9 1843 2515.5" stroke="#AB5816" stroke-width="10"/>
<path d="M2115 2627.5C2100 2593.83 2052.1 2526.5 1980.5 2526.5C1891 2526.5 1900.5 2486 1731 2479.5" stroke="#AB5816" stroke-width="10"/>
<path d="M1888.5 2457C1920.5 2435.17 2009.3 2404.6 2108.5 2457" stroke="#AB5816" stroke-width="10"/>
<path d="M1615 2147.5C1616.17 2246.33 1639.9 2442.1 1725.5 2434.5C1832.5 2425 1849.5 2442 1865.5 2411.5" stroke="#AB5816" stroke-width="10"/>
<path d="M1816 1336.5C1758.17 1448.17 1657.8 1664.9 1659 1710.5C1660.5 1767.5 1649.5 1984.5 1557.5 2247.5" stroke="#AB5816" stroke-width="10"/>
<path d="M1543.5 1124.5C1659.5 1270.5 1646 1639 1624.5 1862.5" stroke="#FFCC66" stroke-width="10"/>
<path d="M111 2808.71C116.667 2792.71 133.1 2762.61 153.5 2770.21C179 2779.71 287 2819.21 289.5 2808.71" stroke="#FFCC66" stroke-width="10"/>
<path d="M336 2424C185.46 2461.12 162.799 2469.04 111 2465.08" stroke="#AB5816" stroke-width="10"/>
<path d="M53 2205.94C85.5 2185.28 178.2 2154.14 289 2194.94" stroke="#AB5816" stroke-width="10"/>
<path d="M14 2350C60.2738 2346.97 160.064 2340.09 189.036 2336.85C225.25 2332.81 352 2323.7 352 2336.85" stroke="#AB5816" stroke-width="10"/>
<path d="M53.7758 2692.5C42.6092 2703 24.2758 2724.6 40.2758 2727C60.2758 2730 301.776 2645 301.776 2630" stroke="#FFCC66" stroke-width="10"/>
<path d="M247.914 1413.77C248.144 1545.72 266.153 1833.32 336.352 1928.17" stroke="#AB5816" stroke-width="10"/>
<path d="M325.5 1217C325.167 1231.83 321.8 1264.1 311 1274.5C300.2 1284.9 343.833 1432.5 367 1505" stroke="#AB5816" stroke-width="10"/>
<path d="M423 1249C321.88 1530.37 368.933 2125.2 368.934 2170.93C358.423 2229.51 387.456 2291.94 368.934 2330" stroke="#AB5816" stroke-width="10"/>
<path d="M1551 2858.5C1554.67 2843.5 1575.3 2808.9 1628.5 2790.5C1641.5 2735 1630 2697 1682.5 2627C1700 2537.5 1604 2494.5 1517.5 2347.5" stroke="#AB5816" stroke-width="10"/>
<path d="M1697.5 2438.5C1637.45 2410.5 1625.5 2290 1608.5 2253C1593.5 2326 1622 2399.5 1652.5 2477C1715.86 2638 1677 2589.5 1724.5 2542.5C1678 2445 1713.5 2457 1697.5 2438.5Z" fill="white"/>
<path d="M476.499 2563.5C476.499 2563.5 409 2349 388.668 2270C336.5 2135.5 353.341 2400.87 349.275 2439.83C343.309 2497 379 2506.5 476.499 2563.5Z" fill="white"/>
<path d="M1387.5 968L1246 888C1243.17 880.334 1245.7 861.9 1278.5 849.5C1311.3 837.1 1398.5 888.667 1443 920L1387.5 968Z" fill="#F9C363"/>
<path d="M757.5 991.5C757.499 910.38 859 880.5 905.5 887.5C939.667 909.667 1012.1 967.699 1018.5 978.499C1026.5 991.999 842.999 908 837.499 990.5C831.999 1073 888.001 1081.5 1025 1159.5C1260 1114.5 1329.5 1001 1317.5 978.499C1292 958.5 1169.5 890.5 1268.5 879.499C1311 879.499 1379.43 916.157 1399 920.999C1449.5 933.499 1406 935.5 1422 957C1438 978.5 1515 979.499 1477.5 1029C1440 1078.5 1074.5 1215.5 1018.5 1193C962.499 1170.5 757.501 1082 757.5 991.5Z" fill="#60527F"/>
<path d="M891.001 894.5L889.814 892.422C875.195 888.558 788.141 892.592 761.501 969C730.819 1057 907.001 1145 1024.5 1190.5C1247 1154.5 1349 1100.5 1382.5 1048.5C1400 1004 1409.5 962.5 1374.5 921.5C1260.5 852 1394.5 927.5 1433.5 916C1440 913 1485 941.5 1497 974.82C1515 1043 1506.5 1077.18 1462.5 1118.5C1378.5 1197.38 1144 1212 1009.5 1230.5C727.001 1161 659 1045 673.5 969C673.5 905 807.335 868.167 871.001 859.5L889.814 892.422C892.031 893.008 892.582 893.776 891.001 894.5Z" fill="#F9C363"/>
<circle cx="1028.5" cy="1803.5" r="173.5" fill="white"/>
<path d="M1134.66 1822.3L1134.66 1822.32L1134.65 1822.33C1129.17 1835.65 1122.85 1848.9 1116.44 1858.81C1113.23 1863.76 1110.05 1867.81 1106.98 1870.61C1103.88 1873.43 1101.09 1874.81 1098.65 1874.81C1096.66 1874.81 1094.89 1874.08 1093.29 1872.35C1091.64 1870.58 1090.15 1867.73 1088.9 1863.48C1086.41 1854.98 1085.08 1841.41 1085.08 1821.33C1085.08 1793.18 1088.99 1763.51 1092.91 1738.71C1094.06 1731.45 1095.2 1724.65 1096.25 1718.42C1097 1713.98 1097.69 1709.83 1098.31 1706.01C1099.78 1696.91 1100.78 1689.69 1100.78 1685.31C1100.78 1681.61 1099.36 1678.37 1096.79 1676.06C1094.23 1673.77 1090.63 1672.5 1086.4 1672.5C1080.44 1672.5 1074.55 1675.65 1068.74 1681.01C1062.9 1686.38 1056.97 1694.12 1050.9 1703.67C1038.74 1722.76 1025.83 1749.39 1011.86 1779.53C1009.48 1784.29 1007.38 1789.04 1005.32 1793.76C1003.1 1793.78 1000.9 1793.85 998.75 1793.92L998.643 1793.92C996.201 1794 993.827 1794.07 991.533 1794.07C984.663 1794.07 978.1 1793.76 971.816 1793.45C964.978 1793.09 959.874 1798.18 959.874 1804.68C959.874 1810.58 964.342 1815.25 971.034 1815.61L971.045 1815.61L971.055 1815.61C978.525 1815.89 986.513 1815.92 994.756 1815.92C985.748 1833.79 977.341 1848.58 968.553 1859.01C959.419 1869.84 950.061 1875.75 939.384 1875.75C931.387 1875.75 926.53 1872.6 922.456 1869.33C921.86 1868.85 921.264 1868.35 920.669 1867.86C919.271 1866.69 917.876 1865.53 916.493 1864.61C914.455 1863.25 912.222 1862.24 909.54 1862.24C904.413 1862.24 900.5 1866.92 900.5 1872.85C900.5 1879.55 905.386 1886 912.441 1890.68C919.559 1895.39 929.194 1898.54 939.384 1898.54C959.743 1898.54 975.441 1888.74 988.628 1873.32C1001.62 1858.13 1012.27 1837.38 1022.68 1814.91L1060.32 1812.27C1060.08 1817.45 1060.08 1822.89 1060.08 1828.53V1828.56C1060.08 1854.43 1064.26 1871.66 1071.24 1882.46C1078.3 1893.38 1088.15 1897.6 1098.97 1897.6C1111.38 1897.6 1121.82 1888.48 1130.52 1875.78C1139.26 1863.03 1146.54 1846.24 1152.52 1830.04C1153.2 1828.33 1153.56 1826.58 1153.56 1825.1C1153.56 1819.08 1149.26 1814.49 1144.21 1814.49C1140.6 1814.49 1137.02 1816.92 1134.66 1822.3ZM1069.86 1714.18C1071.21 1711.74 1072.38 1709.77 1073.35 1708.36C1073.24 1709.12 1073.11 1710.01 1072.94 1711.03C1072.56 1713.37 1072.02 1716.3 1071.39 1719.77C1070.89 1722.53 1070.33 1725.64 1069.73 1729.07C1067.06 1744.26 1063.67 1765.59 1061.76 1790.39C1057.53 1790.65 1053.23 1790.96 1048.86 1791.28C1043.66 1791.65 1038.36 1792.03 1032.94 1792.36C1033.32 1791.54 1033.68 1790.72 1034.05 1789.92L1034.05 1789.91C1034.76 1788.33 1035.45 1786.79 1036.22 1785.25L1036.24 1785.22L1036.25 1785.2C1037.15 1783.2 1038.12 1781.07 1039.13 1778.82C1045 1765.87 1052.49 1749.31 1059.25 1735.2C1063.21 1726.92 1066.9 1719.51 1069.86 1714.18Z" fill="#60527F" stroke="#60527F" stroke-width="3"/>
<path d="M1214 2159C1206 2158.6 1182.67 1928.83 1172 1814L1168 1809.5L1170 1804L1175.5 1811.5V1792.5L1187 1763L1190 1756L1192 1763H1197L1195 1735L1202 1748.5H1204.5L1210 1760.5H1213L1210 1741.5L1216.5 1755L1219 1751L1233.5 1769.5V1759.5L1235.5 1755L1238 1760.5L1242.5 1751L1254 1783L1328 2193.5V2204L1332 2210.5V2216.5L1322.5 2196.5H1319.5L1337.5 2336L1339.5 2345.5L1337.5 2345V2361L1332 2350.5H1328L1342.5 2414V2419L1319.5 2336L1322.5 2324.5L1304 2281.5V2316.5L1314.5 2414L1304 2392.5V2403L1298 2384L1294.5 2392.5L1291 2369.5L1283 2350.5H1279.5L1285.5 2398L1274 2357.5H1271.5L1276 2384L1265 2361L1237.5 2239.5L1243 2222.5C1235.83 2199.83 1221.9 2154.2 1223.5 2153C1225.1 2151.8 1225.83 2137.5 1226 2130.5C1224.83 2132.5 1221.4 2135.9 1217 2133.5C1211.5 2130.5 1216.5 2073.5 1208.5 2088.5C1200.5 2103.5 1224 2159.5 1214 2159Z" fill="#565B6F"/>
<path d="M811 1741L943 1451.5L919 1545L977.5 1423.5L971 1451.5L992.5 1439.5V1447.5H999L992.5 1475.5L1023 1451.5L1049.5 1475.5L1013.5 1545L1036.5 1534.5L772.5 2231.5L761.5 2253L749.5 2231.5L772.5 2149L749.5 2195.5V2149L727 2205V2149L703 2195.5V2149C698.167 2162.33 686.3 2187.4 677.5 2181C668.7 2174.6 777.166 1877 832.5 1729L811 1741Z" fill="#EDC27D"/>
<path d="M683.472 2123.14L823.343 2125.25" stroke="white" stroke-width="10"/>
<path d="M861.304 2127.86C1026.61 2132.92 1359.92 2140.53 1370.67 2130.52" stroke="white" stroke-width="10"/>
<path d="M723.082 2155.13C902.391 2162.15 1273.87 2173.49 1325.33 2162.69" stroke="white" stroke-width="10"/>
<path d="M743.658 2091.61C905.008 2098.82 1238.4 2110.91 1281.15 2101.63" stroke="white" stroke-width="10"/>
<path d="M343.015 2887C303.015 2761.5 314.515 2610.5 383.515 2528C668.5 2710.5 1191.98 2707.5 1459.5 2589.5C1567.5 2705 1525.68 2798.17 1545.52 2887H374.515H343.015Z" fill="url(#paint0_linear_233_59)"/>
<path d="M372.5 2870C353.39 2745.5 364.5 2702.5 392.667 2585C693.501 2735.5 1218.5 2747.5 1430.5 2652.5C1516 2740.5 1466.68 2787.98 1485 2870H392.666H372.5Z" stroke="#AB5816" stroke-width="10"/>
<path d="M832.5 997C848.5 942.5 903 899.5 903 899.5L1253 903.5C1253 903.5 1325.5 955.5 1325.5 997C1329 1101 1065.5 1150.5 1026.5 1161C906.5 1098.5 832.5 1071.5 832.5 997Z" fill="#D0A18F"/>
<path d="M1069 152.5C992.426 153.329 941.648 156.96 879 201C771.127 276.831 784.464 391.754 779 523.5C775.453 609.042 782.375 658.854 806.5 741C826.232 808.188 830.117 854.86 879 905C934.94 962.379 988.902 984.934 1069 982.5C1154.81 979.893 1208.48 946.481 1264 881C1302.98 835.024 1308.62 797.731 1329 741C1358.39 659.177 1373.83 610.4 1376.5 523.5C1380.16 404.422 1394.85 308.603 1309 226C1238.37 158.035 1167.02 151.44 1069 152.5Z" fill="#E5B899"/>
<path d="M969.999 760L972.271 746L1114.26 751L1133 770L1048.94 790L969.999 760Z" fill="#802D37"/>
<path d="M1057.75 811.524C1002.34 802.103 945.356 773.148 924 751.5C982.999 742.5 995.762 758.388 1011.29 761.919C1025.01 767.299 1054.74 775.149 1059.94 775.504C1066.44 775.947 1097.92 773.672 1107.89 769.085C1115.85 765.415 1161 762.001 1194 775.504C1168.63 790.226 1101.27 811.825 1057.75 811.524Z" fill="#B06164"/>
<path d="M1001.5 729.501C952 735 942.499 736.501 923.5 751.502C942.703 764.928 955.5 745.502 983.5 751.502C997.805 752.78 1004.8 754.862 1019 757.002C1036.08 759.575 1043.25 763.153 1060.5 764.002C1072.99 764.617 1082 762.886 1094.5 763.502C1115.5 765.002 1103.5 764.002 1123.5 766.502C1154.5 763.502 1162.5 789 1195.5 774.501C1167 751.502 1145 744.001 1110.5 736.502C1100.5 732.001 1060 736.502 1060 736.502C1060 736.502 1017.93 730.872 1001.5 729.501Z" fill="#B06164"/>
<path d="M918.5 421.998C896.5 416.278 864.667 434.498 850 445.998C852.833 428.498 873.3 398.298 934.5 393.498C998.526 395.982 1050.23 430.98 1050.99 431.492L1051 431.498C1051.17 436.331 1054.5 441.998 1042 449.998C1030.5 453.999 943.5 428.498 918.5 421.998Z" fill="black"/>
<path d="M1262.23 450.754C1284.93 449.538 1312.49 473.742 1324.57 487.936C1325.28 470.223 1311.25 436.547 1252.24 419.635C1189 409.297 1131.35 433.277 1130.51 433.628L1130.5 433.632C1129.37 438.335 1124.98 443.223 1135.63 453.556C1146.1 459.77 1236.44 452.137 1262.23 450.754Z" fill="black"/>
<path d="M1051 685.5C1055 691.1 1060.67 692.833 1063 693C1063 701.667 1061.7 719 1056.5 719C1050 719 1037 724.5 1032 719C1027 713.5 999.5 728 994.5 724.5C989.5 721 939 737 934 736.5C930 736.1 918.667 748.333 913.5 754.5L906 774C906 774 899.238 746.084 906 730.5C910.747 719.56 925.5 707 925.5 707C952.334 697 1008 676.1 1016 672.5C1026 668 1027.5 673 1037 672.5C1046.5 672 1046 678.5 1051 685.5Z" fill="#2C231C" fill-opacity="0.95"/>
<path d="M1081.09 687.901C1076.21 692.753 1070.33 693.515 1068 693.289C1066.55 701.834 1064.94 719.141 1070.07 720.01C1076.47 721.097 1088.37 728.692 1094.22 724.106C1100.07 719.519 1124.76 738.413 1130.27 735.798C1135.79 733.183 1182.9 757.4 1187.92 757.743C1191.93 758.018 1201.06 771.974 1205.12 778.917L1208.25 801.397C1208.25 801.397 1216.53 778.918 1216.52 756.509C1213.67 744.929 1201.23 730.08 1201.23 730.08C1176.44 715.734 1125.06 685.822 1117.77 680.935C1108.66 674.826 1106.35 679.506 1097.07 677.424C1087.78 675.343 1087.19 681.835 1081.09 687.901Z" fill="#2C231C" fill-opacity="0.95"/>
<path d="M1394 516C1380.4 498.4 1367 526.334 1362 545C1353.66 607.667 1331 731.85 1344 724.001C1350 728.001 1369.5 716.501 1373 699.001C1374 689.001 1370 669.001 1370 669.001C1370 665.001 1389 669.001 1410 580.001C1417.5 539.501 1411 538 1394 516Z" fill="#D0A18F"/>
<path d="M749 481C765 461.8 783.5 484.5 792 511C800.333 563.666 812 670.8 792 678C770 687.5 757 653 757 653C754.5 636.5 768.174 633 765 627C731 551.5 729 505 749 481Z" fill="#D0A18F"/>
<g filter="url(#filter0_f_233_59)">
<path d="M757 568C764.501 552.501 770.998 531 770.998 510C772.5 503 763.543 486.272 751.998 490C741 507 744.998 531 744.998 531C744.998 531 746.472 559.604 757 568Z" fill="#BA6D77"/>
</g>
<g filter="url(#filter1_f_233_59)">
<path d="M1388 599.5C1385.5 594.5 1378 583 1378 546C1382.5 534.5 1387.26 536.448 1395.5 538C1403.5 552 1403.5 552.5 1403.5 570.5C1400.36 584.735 1399.5 593 1388 599.5Z" fill="#BA6D77"/>
</g>
<g filter="url(#filter2_f_233_59)">
<path d="M773.5 601C773.5 596 773.041 577.794 767 582.5C762.771 585.796 761.731 591.409 764.5 596C766.577 599.443 775.5 612 773.5 601Z" fill="#76544B"/>
</g>
<g filter="url(#filter3_f_233_59)">
<path d="M780.5 575.5C791.008 573.357 780.5 546.5 775.5 548.5C772.947 551.015 772.188 553.118 771 556.5C771 556.5 769 566.5 771 574C774.057 576.183 776.82 576.25 780.5 575.5Z" fill="#76544B"/>
</g>
<g filter="url(#filter4_f_233_59)">
<path d="M1380 619.999C1378.96 613.2 1376.5 605.5 1370 605.499C1366.29 606.611 1365.9 610.121 1364 613.5C1358.41 623.444 1354.59 640.858 1366 640.999C1371 630.5 1377 630.5 1380 619.999Z" fill="#76544B"/>
</g>
<g filter="url(#filter5_f_233_59)">
<path d="M1357.5 675.5C1360.5 671 1366.06 664.574 1367 656.5C1367.36 653.397 1368.14 650.775 1366 648.5C1362.88 645.181 1355.98 660.5 1357.5 656.5C1353.87 662.973 1353.38 681.674 1357.5 675.5Z" fill="#76544B"/>
</g>
<g opacity="0.8">
<path d="M987 483.5C999 493.5 998 500 996 502C971.667 502 917.5 503.1 895.5 507.5C874.009 511.798 850.61 513.902 847.208 505.607C847.088 505.404 847.022 505.197 847 505C847.058 505.208 847.127 505.411 847.208 505.607C848.002 506.953 851.159 508.128 859.5 505C876.833 498.5 874 488.914 898 480C915.5 473.5 907.5 478 923 473C938.5 468 972 471 987 483.5Z" fill="black"/>
<path d="M904.5 513.998C892 513.998 891 513.998 879.5 509.998C895.9 495.598 919.5 482.498 936.5 479.998C953.5 480 978 488.498 996.5 503.498C1008.5 511.498 985 511.863 996.5 509.998L978 512.998C956 515.165 913.7 519.198 904.5 513.998Z" fill="#775951"/>
<path fill-rule="evenodd" clip-rule="evenodd" d="M954.497 514.929C957.928 510.911 960 505.697 960 500C960 492.506 956.416 485.85 950.869 481.65C945.736 480.561 940.87 479.998 936.5 479.998C934.471 480.297 932.498 480.561 930.567 480.819C927.894 481.177 925.303 481.524 922.763 481.936C917.426 486.147 914 492.674 914 500C914 506.048 916.334 511.551 920.151 515.656C929.843 516.162 942.509 515.704 954.497 514.929Z" fill="#331E19"/>
<path d="M1178.72 492.837C1165.6 501.3 1165.8 507.874 1167.54 510.102C1191.69 513.068 1245.32 520.761 1266.62 527.809C1287.42 534.694 1310.39 539.634 1314.78 531.816C1314.92 531.629 1315.01 531.431 1315.06 531.238C1314.98 531.438 1314.88 531.63 1314.78 531.816C1313.83 533.055 1310.55 533.836 1302.65 529.715C1286.24 521.151 1290.22 511.982 1267.49 500.209C1250.91 491.625 1258.3 497.067 1243.53 490.215C1228.75 483.363 1195.14 482.258 1178.72 492.837Z" fill="black"/>
<path d="M1256.89 533.162C1269.3 534.685 1270.29 534.807 1282.19 532.238C1267.67 515.947 1245.84 500.069 1229.27 495.515C1212.4 493.446 1187.05 498.895 1166.86 511.528C1153.97 518.006 1177.25 521.232 1166.07 517.98L1184.06 523.212C1205.63 528.043 1247.13 537.202 1256.89 533.162Z" fill="#775951"/>
<path fill-rule="evenodd" clip-rule="evenodd" d="M1207.15 527.993C1204.24 523.587 1202.82 518.16 1203.51 512.505C1204.43 505.067 1208.79 498.896 1214.81 495.405C1220.04 494.948 1224.94 494.984 1229.27 495.516C1231.25 496.059 1233.18 496.562 1235.06 497.053C1237.67 497.735 1240.2 498.395 1242.67 499.112C1247.46 503.943 1250.06 510.839 1249.17 518.111C1248.43 524.114 1245.44 529.291 1241.16 532.901C1231.47 532.222 1218.96 530.224 1207.15 527.993Z" fill="#331E19"/>
</g>
<g filter="url(#filter6_b_233_59)">
<path d="M1052 479C1056 432.501 1022.33 432.334 1001 427C962 418.334 877.8 406.2 853 427C822 453 819 479 821 529C823 579 851 611 913 613C975 615 1048 525.5 1052 479Z" fill="#4F426D" fill-opacity="0.95"/>
<path d="M1116.57 486.523C1116.87 439.853 1150.41 442.782 1172.14 439.432C1211.77 434.388 1296.73 430.046 1319.51 453.038C1347.99 481.778 1345.59 508.944 1339 558.548C1316.51 614.5 1277 632.735 1242.67 632.735C1180.75 629.026 1116.28 533.194 1116.57 486.523Z" fill="#4F426D" fill-opacity="0.95"/>
</g>
<path d="M920 825C907 794 907 758.5 907 758.5C907 758.5 893.5 836 886.5 836C879.5 836 891.489 800.403 886 776C883.5 764.885 878 758.5 809.5 686.5C795.5 668.5 796.667 666 795.5 655.5C793 649.334 788 643.3 788 668.5C788 700 795 785 851 870.5C907 956 1002.5 992.5 1047.5 994.5C1092.5 996.5 1105 993 1167.5 972C1230 951 1257 898 1279 875.5C1301 853 1329 756 1333 746.5C1337 737 1349 724.5 1349 680C1357 678 1339 648 1337.5 674C1337.5 674 1332.76 691.218 1329 703C1316.5 708 1232 774 1225 807C1218 840 1225 832.5 1215.5 853C1209 858 1209 780.5 1209 780.5C1209 780.5 1204.5 818.5 1170.5 858C1157.22 873.426 1131 892 1131 892C1080 883 1083 858 1083 858L1096 818.5L1056 825L1013 813.5L1023 858C1023 858 1002.58 871.016 986.5 872C964.161 873.368 938 847.5 938 847.5C938 847.5 926.598 834.372 920 825Z" fill="#2C231C" fill-opacity="0.95"/>
<path d="M799 598.5L803 678C797.8 680.399 790.167 677 788 675C787.5 664.833 788 666.5 786.5 643.5C784.9 642.7 785.833 618.833 785.5 607L784.5 551.5C784.5 541.666 786.9 517.6 784.5 508C781.5 496 782.5 505.5 781.5 488.5C774.655 479.133 769.887 480.149 769.626 477.709C766.345 477.482 761.987 476.474 757.5 474.5C745 469 766.5 479.5 757.5 435.5C748.5 391.5 781 381.5 766.5 358.5C752 335.5 777.5 267 782 261C786.5 255 796 231.5 798 212.5C800 193.5 826.5 183 825 175C823.5 167 827.5 169.5 838 144C848.5 118.5 853.5 130 858.5 116C863.5 102 924.5 82.5 919.5 77.5C914.5 72.5 923 65.5 924.5 60.5C926 55.5 934 62.5 939 58.4996C944 54.4993 937.5 47.5 942 49C946.5 50.5 965.5 47 962 41.5C958.5 36 942.5 7.99963 953 21.4996C963.5 34.9996 969 -18.5004 974 7.99963C979 34.4996 997 26.4996 1023 44.9996C1049 63.4996 1087 58.4996 1092.5 58.4996C1098 58.4996 1164 83.4996 1186.5 86.4996C1209 89.4996 1226 109.5 1237 115.5C1248 121.5 1318 164.5 1318.5 172C1319 179.5 1345 216.5 1361.5 230C1378 243.5 1402.5 300.5 1407.5 323C1412.5 345.5 1417 369.5 1421 377.5C1425 385.5 1411 446 1404.5 448C1398 450 1404 472.5 1404.5 481C1405 489.5 1393.5 488 1392.5 505.5C1366.5 519 1368 535 1362 543C1360 546.5 1356.5 644.5 1356.5 644.5C1353.5 652 1352 705 1345 701C1338 697 1348.5 714 1345 717.5C1342.2 720.3 1338.83 730 1337.5 734.5C1334.83 723.833 1329.8 702.2 1331 701C1333.18 688.371 1335.35 682.19 1336.91 679.236C1331.94 684 1343.31 639.664 1347 617.5C1348.5 592 1348.5 583 1348.5 583C1347.67 557.833 1346.5 506 1348.5 500C1351 492.5 1334.5 460 1332 450.5C1329.5 441 1331 402 1334.5 394.5C1338 387 1321 377 1316.5 369.5C1312 362 1336 369.5 1321 352C1306 334.5 1293 278 1296 273.5C1299 269 1273 245.5 1269 246.5C1265 247.5 1269.5 239.5 1246.5 249.5C1223.5 259.5 1148.5 252.999 1127 257.999C1105.5 262.999 1076.5 236.999 1060 241.499C1043.5 245.999 997.5 239.499 982.5 245.499C967.5 251.499 917.5 236.999 919.5 252.999C921.5 268.999 917.5 279.999 919.5 284.999C921.5 289.999 917.5 303.999 912.5 317.499C907.5 330.999 893.5 338.999 891.5 346C889.5 353 888 347.999 902.5 352C917 356 915.5 349 917.5 352C919.5 355 940.5 343 943 346C944.491 347.789 938.105 351.173 932.134 353.746L936.5 352H950.5C945.167 353.333 932.9 356.8 926.5 360C918.5 364 912.5 362 908.5 361.5C904.5 361 902 356 896 356C890 356 889.4 352 888 353C884.5 355.5 872 350.5 876 356C879.2 360.4 887.667 360.5 891.5 360C901.5 361.666 922 365.7 924 368.5C926 371.3 926.5 373 926.5 373.5C925.333 373.5 922.7 373 921.5 371C920 368.5 909 366 900 365C892.8 364.2 897 368.666 900 371L909 373.5L912.5 380C905.5 377.833 891.5 373 891.5 371C891.5 368.5 875.5 367.5 872 368.5C869.2 369.3 855.166 363.166 848.5 360L832 403L816.5 437.5L800 533.5L801 551.5L799 598.5Z" fill="#2C231C"/>
<path d="M1057.5 476H1051C1053 458.5 1042.5 443.5 1032 435.5C1023.6 429.1 1004.83 424.167 996.5 422.5C1057.17 424.333 1177.9 428.6 1175.5 431C1172.5 434 1168 441.5 1146.5 443.5C1129.3 445.1 1121.67 460.167 1120 467.5L1118.5 481H1111.5C1111.67 478.667 1111.9 472.9 1111.5 468.5C1111.1 464.1 1102.67 460.333 1098.5 459C1089.33 459.167 1069.8 459.4 1065 459C1060.2 458.6 1058 463.167 1057.5 465.5V476Z" stroke="black" stroke-width="3"/>
<path d="M1052 479C1056 432.501 1022.33 432.334 1001 427C962 418.334 877.8 406.2 853 427C822 453 819 479 821 529C823 579 851 611 913 613C975 615 1048 525.5 1052 479Z" stroke="black" stroke-width="3"/>
<path d="M1116.57 486.523C1116.87 439.853 1150.41 442.782 1172.14 439.432C1211.77 434.388 1296.73 430.046 1319.51 453.038C1347.99 481.778 1345.59 508.944 1339 558.548C1316.51 614.5 1277 632.735 1242.67 632.735C1180.75 629.026 1116.28 533.194 1116.57 486.523Z" stroke="black" stroke-width="3"/>
<path d="M1343 518V505.5H1348C1348 505.5 1368.5 504.5 1393 505.5C1395 506.501 1398 510 1403 518C1403.15 519.359 1403.21 520.15 1403 521.501C1403 526.5 1401 517 1393 508.5C1370.5 503.5 1348 518 1348 518H1343Z" fill="black"/>
<path d="M819.999 489.421L821.299 477.028L816.937 476.375C816.937 476.375 774.5 470 754.393 469.424C752.279 470.155 748.848 473.232 742.847 480.511C742.518 481.839 742.356 482.616 742.39 483.982C741.737 488.939 744.96 480.781 754.001 473.398C778.498 473.063 815.306 488.768 815.306 488.768L819.999 489.421Z" fill="black"/>
<ellipse cx="1023.91" cy="656.747" rx="12.5" ry="6.52779" transform="rotate(11 1023.91 656.747)" fill="#76544B"/>
<ellipse cx="1110.19" cy="664.275" rx="13.0556" ry="6.52779" fill="#76544B"/>
<path d="M1140.61 602.281C1093.62 534.657 1104.59 466.248 1087.38 463.158C1065.09 459.157 1057.09 532.161 1010.18 587.49C993.593 599.507 980.57 613.305 983.384 635.559C987.242 666.066 1016.18 665.066 1016.18 665.066C1016.18 665.066 995.828 646.652 1022.1 646.652C1037.77 648.502 1039.22 664.217 1065.03 677.158C1090.38 668.377 1089.14 651.275 1117.26 655.434C1138 654.51 1122.4 674.31 1122.4 674.31C1122.4 674.31 1161.5 677.158 1157.81 637.408C1153.2 623.081 1151.21 617.534 1140.61 602.281Z" fill="url(#paint1_linear_233_59)" stroke="#76544B" stroke-opacity="0.3"/>
<path d="M1117.5 278C1078.5 258 1047 258 932 258C924.5 281.5 944.5 286.5 932 316C920 327.5 936.5 328.5 883 377.5C864.6 385.5 846.833 371.667 833.5 365L877.5 176.5L1303 190.5L1393 429.5C1378.67 438 1333 475.5 1323 419.5C1328.5 399 1303 370.5 1274.5 269.5C1266 261 1177.5 273.5 1117.5 278Z" fill="#2C231C" fill-opacity="0.55"/>
<g filter="url(#filter7_f_233_59)">
<path d="M966.5 665.5C950.1 658.3 953.667 627.5 957.5 613C870 661 814 581.5 813.5 584C813 586.5 812.5 672.5 819 681C825.5 689.5 898.5 759 895.5 740.5C892.5 722 893 712.5 898.5 699C904 685.5 987 674.5 966.5 665.5Z" fill="#D5A791"/>
</g>
<g filter="url(#filter8_f_233_59)">
<path d="M1160.5 684.5C1180.5 676.9 1182.17 645.333 1180.5 630.5C1258.1 668.5 1315.83 631.667 1335 608.5C1334 640.5 1328.9 703.2 1316.5 698C1301 691.5 1225.5 778.5 1227 773C1228.5 767.5 1233 734 1222 727.5C1211 721 1135.5 694 1160.5 684.5Z" fill="#D6A892"/>
</g>
<g filter="url(#filter9_f_233_59)">
<path d="M1093.5 862.5C1095.5 850.1 1104.33 830 1108.5 821.5C1139.17 808.5 1199.5 786.5 1195.5 802.5C1191.5 818.5 1149.5 864.5 1129 885.5C1116.33 883 1091.5 874.9 1093.5 862.5Z" fill="#D7A993"/>
</g>
<g filter="url(#filter10_f_233_59)">
<path d="M1014.19 848.609C1012.19 836.209 1005.36 812.109 1001.19 803.609C970.523 790.609 910.189 768.609 914.189 784.609C930.189 848.609 959.189 842.609 979.689 863.609C992.356 861.109 1016.19 861.009 1014.19 848.609Z" fill="#D7A993"/>
</g>
<g filter="url(#filter11_f_233_59)">
<path d="M1094 287C1099.2 272.2 996.833 272.5 944.999 274.5C942.251 274.602 961 302.5 939 332C1021 404 1317.5 410 1285.5 371C1304.5 358 1262.17 291.167 1260.5 278C1207.83 286.833 1088.8 301.8 1094 287Z" fill="#D5A791" fill-opacity="0.9"/>
</g>
<defs>
<filter id="filter0_f_233_59" x="742.79" y="487.965" width="29.873" height="81.5352" filterUnits="userSpaceOnUse" color-interpolation-filters="sRGB">
<feFlood flood-opacity="0" result="BackgroundImageFix"/>
<feBlend mode="normal" in="SourceGraphic" in2="BackgroundImageFix" result="shape"/>
<feGaussianBlur stdDeviation="0.75" result="effect1_foregroundBlur_233_59"/>
</filter>
<filter id="filter1_f_233_59" x="1376.5" y="535.315" width="28.5" height="65.6846" filterUnits="userSpaceOnUse" color-interpolation-filters="sRGB">
<feFlood flood-opacity="0" result="BackgroundImageFix"/>
<feBlend mode="normal" in="SourceGraphic" in2="BackgroundImageFix" result="shape"/>
<feGaussianBlur stdDeviation="0.75" result="effect1_foregroundBlur_233_59"/>
</filter>
<filter id="filter2_f_233_59" x="760.959" y="579.73" width="14.8311" height="27.6934" filterUnits="userSpaceOnUse" color-interpolation-filters="sRGB">
<feFlood flood-opacity="0" result="BackgroundImageFix"/>
<feBlend mode="normal" in="SourceGraphic" in2="BackgroundImageFix" result="shape"/>
<feGaussianBlur stdDeviation="1" result="effect1_foregroundBlur_233_59"/>
</filter>
<filter id="filter3_f_233_59" x="768.111" y="546.394" width="18.8926" height="31.5381" filterUnits="userSpaceOnUse" color-interpolation-filters="sRGB">
<feFlood flood-opacity="0" result="BackgroundImageFix"/>
<feBlend mode="normal" in="SourceGraphic" in2="BackgroundImageFix" result="shape"/>
<feGaussianBlur stdDeviation="1" result="effect1_foregroundBlur_233_59"/>
</filter>
<filter id="filter4_f_233_59" x="1356.61" y="603.499" width="25.3911" height="39.5" filterUnits="userSpaceOnUse" color-interpolation-filters="sRGB">
<feFlood flood-opacity="0" result="BackgroundImageFix"/>
<feBlend mode="normal" in="SourceGraphic" in2="BackgroundImageFix" result="shape"/>
<feGaussianBlur stdDeviation="1" result="effect1_foregroundBlur_233_59"/>
</filter>
<filter id="filter5_f_233_59" x="1352.59" y="646.025" width="16.8462" height="32.707" filterUnits="userSpaceOnUse" color-interpolation-filters="sRGB">
<feFlood flood-opacity="0" result="BackgroundImageFix"/>
<feBlend mode="normal" in="SourceGraphic" in2="BackgroundImageFix" result="shape"/>
<feGaussianBlur stdDeviation="1" result="effect1_foregroundBlur_233_59"/>
</filter>
<filter id="filter6_b_233_59" x="813.515" y="408.516" width="536.728" height="231.219" filterUnits="userSpaceOnUse" color-interpolation-filters="sRGB">
<feFlood flood-opacity="0" result="BackgroundImageFix"/>
<feGaussianBlur in="BackgroundImage" stdDeviation="3.5"/>
<feComposite in2="SourceAlpha" operator="in" result="effect1_backgroundBlur_233_59"/>
<feBlend mode="normal" in="SourceGraphic" in2="effect1_backgroundBlur_233_59" result="shape"/>
</filter>
<filter id="filter7_f_233_59" x="793.233" y="563.942" width="196.516" height="199.676" filterUnits="userSpaceOnUse" color-interpolation-filters="sRGB">
<feFlood flood-opacity="0" result="BackgroundImageFix"/>
<feBlend mode="normal" in="SourceGraphic" in2="BackgroundImageFix" result="shape"/>
<feGaussianBlur stdDeviation="10" result="effect1_foregroundBlur_233_59"/>
</filter>
<filter id="filter8_f_233_59" x="1135.46" y="588.5" width="219.543" height="204.75" filterUnits="userSpaceOnUse" color-interpolation-filters="sRGB">
<feFlood flood-opacity="0" result="BackgroundImageFix"/>
<feBlend mode="normal" in="SourceGraphic" in2="BackgroundImageFix" result="shape"/>
<feGaussianBlur stdDeviation="10" result="effect1_foregroundBlur_233_59"/>
</filter>
<filter id="filter9_f_233_59" x="1080.39" y="783.891" width="128.303" height="114.609" filterUnits="userSpaceOnUse" color-interpolation-filters="sRGB">
<feFlood flood-opacity="0" result="BackgroundImageFix"/>
<feBlend mode="normal" in="SourceGraphic" in2="BackgroundImageFix" result="shape"/>
<feGaussianBlur stdDeviation="6.5" result="effect1_foregroundBlur_233_59"/>
</filter>
<filter id="filter10_f_233_59" x="901" y="766" width="126.308" height="110.609" filterUnits="userSpaceOnUse" color-interpolation-filters="sRGB">
<feFlood flood-opacity="0" result="BackgroundImageFix"/>
<feBlend mode="normal" in="SourceGraphic" in2="BackgroundImageFix" result="shape"/>
<feGaussianBlur stdDeviation="6.5" result="effect1_foregroundBlur_233_59"/>
</filter>
<filter id="filter11_f_233_59" x="918" y="252.514" width="393.394" height="163.344" filterUnits="userSpaceOnUse" color-interpolation-filters="sRGB">
<feFlood flood-opacity="0" result="BackgroundImageFix"/>
<feBlend mode="normal" in="SourceGraphic" in2="BackgroundImageFix" result="shape"/>
<feGaussianBlur stdDeviation="10.5" result="effect1_foregroundBlur_233_59"/>
</filter>
<linearGradient id="paint0_linear_233_59" x1="915.999" y1="2528" x2="915.999" y2="2988.5" gradientUnits="userSpaceOnUse">
<stop stop-color="#F9C363"/>
<stop offset="1" stop-color="#F9C363" stop-opacity="0"/>
</linearGradient>
<linearGradient id="paint1_linear_233_59" x1="1082.59" y1="392.661" x2="1061.59" y2="791.161" gradientUnits="userSpaceOnUse">
<stop stop-color="#E5B899"/>
<stop offset="0.584686" stop-color="#D0A18F"/>
<stop offset="1" stop-color="#76544B"/>
</linearGradient>
</defs>
</svg>
