<svg xmlns="http://www.w3.org/2000/svg" width="2130" height="2886" fill="none" viewBox="0 0 2130 2886"><path fill="#CD8332" d="M1494.5 1049.5C1373.3 1137.9 1219 1178.5 1028.5 1220C821.5 1210.5 783.5 1075.01 700.5 977.499C575.5 1021 420 1112.5 359 1152C289 1156 93 1848 31.0003 2048C-30.9995 2248 31.0003 2572 5.00016 2586.5C-21 2601 67.0003 2694 31.0003 2688C2.20027 2683.2 19.0003 2817.67 31.0003 2885.5H1517H1939.5C2008.5 2867 2143 2824 2128.5 2481C1939.5 1758.5 1998 1262.5 1494.5 1049.5Z"/><path stroke="#FC6" stroke-width="10" d="M2000.5 2373.5C1935.83 2358.5 1789.5 2331.1 1721.5 2341.5"/><path stroke="#FC6" stroke-width="10" d="M1683 2056C1895.4 2051.6 1955.5 2093.17 1959 2114.5"/><path stroke="#FC6" stroke-width="10" d="M1647 2717.5C1680.67 2729.83 1750.7 2762 1761.5 2792C1775 2829.5 1868.5 2871 1887 2873.5"/><path stroke="#FC6" stroke-width="10" d="M1611 2813.5C1629.67 2831.67 1677.4 2869.6 1719 2876"/><path stroke="#FC6" stroke-width="10" d="M1689.5 2666.5C1717.5 2697.33 1795.9 2769.9 1885.5 2813.5"/><path stroke="#AB5816" stroke-width="10" d="M1725.5 2572C1781.5 2585.17 1906.6 2633.7 1959 2722.5"/><path stroke="#AB5816" stroke-width="10" d="M1717.5 2505.5C1729.5 2518.67 1771.4 2538.9 1843 2514.5"/><path stroke="#AB5816" stroke-width="10" d="M2115 2626.5C2100 2592.83 2052.1 2525.5 1980.5 2525.5C1891 2525.5 1900.5 2485 1731 2478.5"/><path stroke="#AB5816" stroke-width="10" d="M1888.5 2456C1920.5 2434.17 2009.3 2403.6 2108.5 2456"/><path stroke="#AB5816" stroke-width="10" d="M1615 2146.5C1616.17 2245.33 1639.9 2441.1 1725.5 2433.5C1832.5 2424 1849.5 2441 1865.5 2410.5"/><path stroke="#AB5816" stroke-width="10" d="M1816 1335.5C1758.17 1447.17 1657.8 1663.9 1659 1709.5C1660.5 1766.5 1649.5 1983.5 1557.5 2246.5"/><path stroke="#FC6" stroke-width="10" d="M1543.5 1123.5C1659.5 1269.5 1646 1638 1624.5 1861.5"/><path stroke="#FC6" stroke-width="10" d="M111 2807.71C116.667 2791.71 133.1 2761.61 153.5 2769.21C179 2778.71 287 2818.21 289.5 2807.71"/><path stroke="#AB5816" stroke-width="10" d="M336 2423C185.46 2460.12 162.799 2468.04 111 2464.08"/><path stroke="#AB5816" stroke-width="10" d="M53 2204.94C85.5 2184.28 178.2 2153.14 289 2193.94"/><path stroke="#AB5816" stroke-width="10" d="M14 2349C60.2738 2345.97 160.064 2339.09 189.036 2335.85C225.25 2331.81 352 2322.7 352 2335.85"/><path stroke="#FC6" stroke-width="10" d="M53.7758 2691.5C42.6092 2702 24.2758 2723.6 40.2758 2726C60.2758 2729 301.776 2644 301.776 2629"/><path stroke="#AB5816" stroke-width="10" d="M247.914 1412.77C248.144 1544.72 266.153 1832.32 336.352 1927.17"/><path stroke="#AB5816" stroke-width="10" d="M325.5 1216C325.167 1230.83 321.8 1263.1 311 1273.5C300.2 1283.9 343.833 1431.5 367 1504"/><path stroke="#AB5816" stroke-width="10" d="M423 1248C321.88 1529.37 368.933 2124.2 368.934 2169.93C358.423 2228.51 387.456 2290.94 368.934 2329"/><path stroke="#AB5816" stroke-width="10" d="M1551 2857.5C1554.67 2842.5 1575.3 2807.9 1628.5 2789.5C1641.5 2734 1630 2696 1682.5 2626C1700 2536.5 1604 2493.5 1517.5 2346.5"/><path fill="#fff" d="M1697.5 2437.5C1637.45 2409.5 1625.5 2289 1608.5 2252C1593.5 2325 1622 2398.5 1652.5 2476C1715.86 2637 1677 2588.5 1724.5 2541.5C1678 2444 1713.5 2456 1697.5 2437.5Z"/><path fill="#fff" d="M490.5 2583C490.5 2583 409.001 2348 388.669 2269C336.501 2134.5 353.341 2399.87 349.275 2438.83C343.31 2496 347 2521.5 490.5 2583Z"/><path fill="#F9C363" d="M1387.5 967L1246 887C1243.17 879.334 1245.7 860.9 1278.5 848.5C1311.3 836.1 1398.5 887.667 1443 919L1387.5 967Z"/><path fill="#60527F" d="M757.5 990.5C757.499 909.38 859 879.5 905.5 886.5C939.667 908.667 1012.1 966.699 1018.5 977.499C1026.5 990.999 842.999 907 837.499 989.5C831.999 1072 888.001 1080.5 1025 1158.5C1260 1113.5 1329.5 999.999 1317.5 977.499C1292 957.5 1169.5 889.5 1268.5 878.499C1311 878.499 1379.43 915.157 1399 919.999C1449.5 932.499 1406 934.5 1422 956C1438 977.5 1515 978.499 1477.5 1028C1440 1077.5 1074.5 1214.5 1018.5 1192C962.499 1169.5 757.501 1081 757.5 990.5Z"/><path fill="#F9C363" d="M891.001 893.5L889.814 891.422C875.195 887.558 788.141 891.592 761.501 968C730.819 1056 907.001 1144 1024.5 1189.5C1247 1153.5 1349 1099.5 1382.5 1047.5C1400 1003 1409.5 961.5 1374.5 920.5C1260.5 851 1394.5 926.5 1433.5 915C1440 912 1485 940.5 1497 973.82C1515 1042 1506.5 1076.18 1462.5 1117.5C1378.5 1196.38 1144 1211 1009.5 1229.5C727.001 1160 659 1044 673.5 968C673.5 904 807.335 867.167 871.001 858.5L889.814 891.422C892.031 892.008 892.582 892.776 891.001 893.5Z"/><circle cx="1028.5" cy="1802.5" r="173.5" fill="#fff"/><path fill="#60527F" stroke="#60527F" stroke-width="3" d="M1134.66 1821.3L1134.66 1821.32L1134.65 1821.33C1129.17 1834.65 1122.85 1847.9 1116.44 1857.81C1113.23 1862.76 1110.05 1866.81 1106.98 1869.61C1103.88 1872.43 1101.09 1873.81 1098.65 1873.81C1096.66 1873.81 1094.89 1873.08 1093.29 1871.35C1091.64 1869.58 1090.15 1866.73 1088.9 1862.48C1086.41 1853.98 1085.08 1840.41 1085.08 1820.33C1085.08 1792.18 1088.99 1762.51 1092.91 1737.71C1094.06 1730.45 1095.2 1723.65 1096.25 1717.42C1097 1712.98 1097.69 1708.83 1098.31 1705.01C1099.78 1695.91 1100.78 1688.69 1100.78 1684.31C1100.78 1680.61 1099.36 1677.37 1096.79 1675.06C1094.23 1672.77 1090.63 1671.5 1086.4 1671.5C1080.44 1671.5 1074.55 1674.65 1068.74 1680.01C1062.9 1685.38 1056.97 1693.12 1050.9 1702.67C1038.74 1721.76 1025.83 1748.39 1011.86 1778.53C1009.48 1783.29 1007.38 1788.04 1005.32 1792.76C1003.1 1792.78 1000.9 1792.85 998.75 1792.92L998.643 1792.92C996.201 1793 993.827 1793.07 991.533 1793.07C984.663 1793.07 978.1 1792.76 971.816 1792.45C964.978 1792.09 959.874 1797.18 959.874 1803.68C959.874 1809.58 964.342 1814.25 971.034 1814.61L971.045 1814.61L971.055 1814.61C978.525 1814.89 986.513 1814.92 994.756 1814.92C985.748 1832.79 977.341 1847.58 968.553 1858.01C959.419 1868.84 950.061 1874.75 939.384 1874.75C931.387 1874.75 926.53 1871.6 922.456 1868.33C921.86 1867.85 921.264 1867.35 920.669 1866.86C919.271 1865.69 917.876 1864.53 916.493 1863.61C914.455 1862.25 912.222 1861.24 909.54 1861.24C904.413 1861.24 900.5 1865.92 900.5 1871.85C900.5 1878.55 905.386 1885 912.441 1889.68C919.559 1894.39 929.194 1897.54 939.384 1897.54C959.743 1897.54 975.441 1887.74 988.628 1872.32C1001.62 1857.13 1012.27 1836.38 1022.68 1813.91L1060.32 1811.27C1060.08 1816.45 1060.08 1821.89 1060.08 1827.53V1827.56C1060.08 1853.43 1064.26 1870.66 1071.24 1881.46C1078.3 1892.38 1088.15 1896.6 1098.97 1896.6C1111.38 1896.6 1121.82 1887.48 1130.52 1874.78C1139.26 1862.03 1146.54 1845.24 1152.52 1829.04C1153.2 1827.33 1153.56 1825.58 1153.56 1824.1C1153.56 1818.08 1149.26 1813.49 1144.21 1813.49C1140.6 1813.49 1137.02 1815.92 1134.66 1821.3ZM1069.86 1713.18C1071.21 1710.74 1072.38 1708.77 1073.35 1707.36C1073.24 1708.12 1073.11 1709.01 1072.94 1710.03C1072.56 1712.37 1072.02 1715.3 1071.39 1718.77C1070.89 1721.53 1070.33 1724.64 1069.73 1728.07C1067.06 1743.26 1063.67 1764.59 1061.76 1789.39C1057.53 1789.65 1053.23 1789.96 1048.86 1790.28C1043.66 1790.65 1038.36 1791.03 1032.94 1791.36C1033.32 1790.54 1033.68 1789.72 1034.05 1788.92L1034.05 1788.91C1034.76 1787.33 1035.45 1785.79 1036.22 1784.25L1036.24 1784.22L1036.25 1784.2C1037.15 1782.2 1038.12 1780.07 1039.13 1777.82C1045 1764.87 1052.49 1748.31 1059.25 1734.2C1063.21 1725.92 1066.9 1718.51 1069.86 1713.18Z"/><path fill="#565B6F" d="M1214 2158C1206 2157.6 1182.67 1927.83 1172 1813L1168 1808.5L1170 1803L1175.5 1810.5V1791.5L1187 1762L1190 1755L1192 1762H1197L1195 1734L1202 1747.5H1204.5L1210 1759.5H1213L1210 1740.5L1216.5 1754L1219 1750L1233.5 1768.5V1758.5L1235.5 1754L1238 1759.5L1242.5 1750L1254 1782L1328 2192.5V2203L1332 2209.5V2215.5L1322.5 2195.5H1319.5L1337.5 2335L1339.5 2344.5L1337.5 2344V2360L1332 2349.5H1328L1342.5 2413V2418L1319.5 2335L1322.5 2323.5L1304 2280.5V2315.5L1314.5 2413L1304 2391.5V2402L1298 2383L1294.5 2391.5L1291 2368.5L1283 2349.5H1279.5L1285.5 2397L1274 2356.5H1271.5L1276 2383L1265 2360L1237.5 2238.5L1243 2221.5C1235.83 2198.83 1221.9 2153.2 1223.5 2152C1225.1 2150.8 1225.83 2136.5 1226 2129.5C1224.83 2131.5 1221.4 2134.9 1217 2132.5C1211.5 2129.5 1216.5 2072.5 1208.5 2087.5C1200.5 2102.5 1224 2158.5 1214 2158Z"/><path fill="#EDC27D" d="M811 1740L943 1450.5L919 1544L977.5 1422.5L971 1450.5L992.5 1438.5V1446.5H999L992.5 1474.5L1023 1450.5L1049.5 1474.5L1013.5 1544L1036.5 1533.5L772.5 2230.5L761.5 2252L749.5 2230.5L772.5 2148L749.5 2194.5V2148L727 2204V2148L703 2194.5V2148C698.167 2161.33 686.3 2186.4 677.5 2180C668.7 2173.6 777.166 1876 832.5 1728L811 1740Z"/><path stroke="#fff" stroke-width="10" d="M683.472 2122.14L823.343 2124.25"/><path stroke="#fff" stroke-width="10" d="M861.304 2126.86C1026.61 2131.92 1359.92 2139.53 1370.67 2129.52"/><path stroke="#fff" stroke-width="10" d="M723.082 2154.13C902.391 2161.15 1273.87 2172.49 1325.33 2161.69"/><path stroke="#fff" stroke-width="10" d="M743.658 2090.61C905.008 2097.82 1238.4 2109.91 1281.15 2100.63"/><path fill="url(#paint0_linear_233_59)" d="M343.015 2886C303.015 2760.5 314.515 2609.5 383.515 2527C668.5 2709.5 1191.98 2706.5 1459.5 2588.5C1567.5 2704 1525.68 2797.17 1545.52 2886H374.515H343.015Z"/><path stroke="#AB5816" stroke-width="10" d="M372.5 2869C353.39 2744.5 364.5 2701.5 392.667 2584C693.501 2734.5 1218.5 2746.5 1430.5 2651.5C1516 2739.5 1466.68 2786.98 1485 2869H392.666H372.5Z"/><path fill="#D0A18F" d="M832.5 996C848.5 941.5 903 898.5 903 898.5L1253 902.5C1253 902.5 1325.5 954.5 1325.5 996C1329 1100 1065.5 1149.5 1026.5 1160C906.5 1097.5 832.5 1070.5 832.5 996Z"/><path fill="#E5B899" d="M1068.82 151.979C992.244 152.807 941.467 156.439 878.818 200.479C770.945 276.31 784.282 391.232 778.818 522.979C775.271 608.52 782.193 658.333 806.318 740.479C826.051 807.666 829.936 854.339 878.818 904.479C934.758 961.857 988.721 984.412 1068.82 981.979C1154.63 979.372 1208.3 945.96 1263.82 880.479C1302.8 834.502 1308.44 797.209 1328.82 740.479C1358.21 658.655 1373.65 609.879 1376.32 522.979C1379.98 403.901 1394.66 308.082 1308.82 225.479C1238.18 157.513 1166.84 150.918 1068.82 151.979Z"/><path fill="#802D37" d="M969.817 759.479L972.089 745.479L1114.08 750.479L1132.82 769.479L1048.76 789.479L969.817 759.479Z"/><path fill="#B06164" d="M1057.57 811.002C1002.15 801.582 945.175 772.627 923.818 750.979C982.818 741.979 995.58 757.866 1011.11 761.397C1024.83 766.778 1054.55 774.628 1059.76 774.982C1066.26 775.425 1097.74 773.151 1107.7 768.564C1115.67 764.894 1160.82 761.479 1193.82 774.982C1168.45 789.704 1101.09 811.303 1057.57 811.002Z"/><path fill="#B06164" d="M1001.32 728.979C951.818 734.479 942.317 735.979 923.318 750.98C942.521 764.407 955.318 744.98 983.318 750.98C997.623 752.258 1004.62 754.341 1018.82 756.48C1035.9 759.054 1043.07 762.632 1060.32 763.48C1072.81 764.095 1081.82 762.364 1094.32 762.98C1115.32 764.48 1103.32 763.48 1123.32 765.98C1154.32 762.98 1162.32 788.479 1195.32 773.979C1166.82 750.98 1144.82 743.479 1110.32 735.98C1100.32 731.479 1059.82 735.98 1059.82 735.98C1059.82 735.98 1017.75 730.35 1001.32 728.979Z"/><path fill="#000" d="M918.318 421.477C896.318 415.757 864.485 433.977 849.818 445.477C852.652 427.977 873.118 397.777 934.318 392.977C998.344 395.46 1050.05 430.458 1050.81 430.971L1050.82 430.977C1050.99 435.81 1054.32 441.477 1041.82 449.477C1030.32 453.477 943.318 427.977 918.318 421.477Z"/><path fill="#000" d="M1262.05 450.233C1284.75 449.016 1312.31 473.22 1324.39 487.415C1325.1 469.701 1311.07 436.025 1252.06 419.114C1188.82 408.776 1131.17 432.756 1130.33 433.107L1130.32 433.111C1129.19 437.814 1124.79 442.702 1135.45 453.034C1145.92 459.248 1236.26 451.615 1262.05 450.233Z"/><path fill="#2C231C" fill-opacity=".95" d="M1050.82 684.979C1054.82 690.579 1060.49 692.312 1062.82 692.479C1062.82 701.145 1061.52 718.479 1056.32 718.479C1049.82 718.479 1036.82 723.979 1031.82 718.479C1026.82 712.979 999.319 727.479 994.319 723.979C989.319 720.479 938.819 736.479 933.819 735.979C929.819 735.579 918.485 747.812 913.319 753.979L905.819 773.479C905.819 773.479 899.056 745.562 905.819 729.979C910.566 719.039 925.319 706.479 925.319 706.479C952.152 696.479 1007.82 675.579 1015.82 671.979C1025.82 667.478 1027.32 672.479 1036.82 671.979C1046.32 671.479 1045.82 677.979 1050.82 684.979Z"/><path fill="#2C231C" fill-opacity=".95" d="M1080.91 687.379C1076.03 692.232 1070.15 692.993 1067.82 692.768C1066.37 701.312 1064.76 718.619 1069.88 719.488C1076.29 720.575 1088.19 728.171 1094.04 723.584C1099.89 718.998 1124.58 737.891 1130.09 735.276C1135.61 732.661 1182.72 756.879 1187.73 757.222C1191.74 757.496 1200.87 771.452 1204.94 778.396L1208.07 800.875C1208.07 800.875 1216.34 778.396 1216.34 755.987C1213.49 744.408 1201.05 729.558 1201.05 729.558C1176.26 715.213 1124.87 685.301 1117.59 680.414C1108.48 674.305 1106.17 678.984 1096.88 676.903C1087.6 674.822 1087.01 681.314 1080.91 687.379Z"/><path fill="#D0A18F" d="M1393.82 515.479C1380.22 497.879 1366.82 525.812 1361.82 544.479C1353.48 607.146 1330.82 731.328 1343.82 723.479C1349.82 727.479 1369.32 715.979 1372.82 698.479C1373.82 688.479 1369.82 668.479 1369.82 668.479C1369.82 664.479 1388.82 668.479 1409.82 579.479C1417.32 538.979 1410.82 537.479 1393.82 515.479Z"/><path fill="#D0A18F" d="M748.818 480.478C764.818 461.278 783.318 483.979 791.818 510.478C800.152 563.145 811.818 670.278 791.818 677.478C769.818 686.978 756.818 652.478 756.818 652.478C754.318 635.978 767.992 632.478 764.818 626.478C730.818 550.978 728.818 504.478 748.818 480.478Z"/><g filter="url(#filter0_f_233_59)"><path fill="#BA6D77" d="M756.818 567.479C764.32 551.979 770.816 530.478 770.816 509.478C772.318 502.479 763.361 485.751 751.816 489.478C740.818 506.479 744.816 530.478 744.816 530.478C744.816 530.478 746.29 559.083 756.818 567.479Z"/></g><g filter="url(#filter1_f_233_59)"><path fill="#BA6D77" d="M1387.82 598.979C1385.32 593.979 1377.82 582.479 1377.82 545.479C1382.32 533.979 1387.08 535.926 1395.32 537.479C1403.32 551.479 1403.32 551.979 1403.32 569.979C1400.18 584.214 1399.32 592.479 1387.82 598.979Z"/></g><g filter="url(#filter2_f_233_59)"><path fill="#76544B" d="M773.318 600.479C773.318 595.478 772.859 577.273 766.818 581.979C762.589 585.274 761.549 590.888 764.318 595.479C766.395 598.922 775.318 611.479 773.318 600.479Z"/></g><g filter="url(#filter3_f_233_59)"><path fill="#76544B" d="M780.319 574.978C790.826 572.836 780.319 545.979 775.319 547.978C772.765 550.494 772.006 552.596 770.819 555.978C770.819 555.978 768.818 565.978 770.819 573.478C773.875 575.661 776.639 575.729 780.319 574.978Z"/></g><g filter="url(#filter4_f_233_59)"><path fill="#76544B" d="M1379.82 619.478C1378.78 612.678 1376.32 604.978 1369.82 604.978C1366.11 606.089 1365.72 609.599 1363.82 612.978C1358.23 622.923 1354.41 640.336 1365.82 640.478C1370.82 629.978 1376.82 629.978 1379.82 619.478Z"/></g><g filter="url(#filter5_f_233_59)"><path fill="#76544B" d="M1357.32 674.979C1360.32 670.478 1365.88 664.053 1366.82 655.979C1367.18 652.875 1367.96 650.254 1365.82 647.979C1362.69 644.659 1355.8 659.978 1357.32 655.979C1353.69 662.452 1353.2 681.152 1357.32 674.979Z"/></g><g opacity=".8"><path fill="#000" d="M986.818 482.979C998.818 492.979 997.818 499.479 995.818 501.479C971.485 501.479 917.318 502.579 895.318 506.979C873.827 511.277 850.428 513.38 847.026 505.086C846.906 504.882 846.84 504.675 846.818 504.479C846.876 504.687 846.946 504.889 847.026 505.086C847.82 506.431 850.978 507.606 859.318 504.479C876.652 497.979 873.818 488.393 897.818 479.479C915.318 472.979 907.318 477.479 922.818 472.479C938.318 467.479 971.818 470.479 986.818 482.979Z"/><path fill="#775951" d="M904.318 513.477C891.818 513.477 890.818 513.477 879.318 509.477C895.718 495.077 919.318 481.977 936.318 479.477C953.318 479.479 977.818 487.977 996.318 502.977C1008.32 510.977 984.818 511.341 996.318 509.477L977.818 512.477C955.818 514.643 913.518 518.677 904.318 513.477Z"/><path fill="#331E19" fill-rule="evenodd" d="M954.316 514.407C957.747 510.389 959.818 505.176 959.818 499.479C959.818 491.985 956.234 485.328 950.687 481.129C945.555 480.039 940.689 479.477 936.318 479.477C934.29 479.775 932.316 480.039 930.387 480.297C927.712 480.655 925.121 481.002 922.581 481.414C917.244 485.626 913.818 492.152 913.818 499.479C913.818 505.527 916.153 511.029 919.97 515.135C929.661 515.641 942.327 515.183 954.316 514.407Z" clip-rule="evenodd"/><path fill="#000" d="M1178.54 492.316C1165.41 500.779 1165.61 507.352 1167.36 509.581C1191.51 512.546 1245.14 520.239 1266.44 527.288C1287.24 534.173 1310.21 539.112 1314.6 531.294C1314.74 531.107 1314.83 530.91 1314.88 530.717C1314.8 530.917 1314.7 531.109 1314.6 531.294C1313.65 532.533 1310.37 533.315 1302.47 529.194C1286.06 520.63 1290.04 511.461 1267.31 499.688C1250.73 491.104 1258.12 496.545 1243.35 489.694C1228.57 482.842 1194.95 481.737 1178.54 492.316Z"/><path fill="#775951" d="M1256.71 532.64C1269.12 534.164 1270.11 534.285 1282.01 531.717C1267.49 515.425 1245.66 499.547 1229.09 494.994C1212.22 492.924 1186.87 498.373 1166.68 511.007C1153.79 517.485 1177.07 520.711 1165.88 517.458L1183.88 522.69C1205.45 527.522 1246.95 536.68 1256.71 532.64Z"/><path fill="#331E19" fill-rule="evenodd" d="M1206.97 527.471C1204.06 523.065 1202.64 517.638 1203.33 511.983C1204.24 504.545 1208.61 498.375 1214.63 494.883C1219.86 494.427 1224.76 494.462 1229.09 494.994C1231.07 495.538 1233 496.04 1234.88 496.532C1237.49 497.213 1240.02 497.873 1242.49 498.591C1247.28 503.422 1249.88 510.317 1248.99 517.589C1248.25 523.592 1245.26 528.769 1240.97 532.379C1231.29 531.7 1218.78 529.702 1206.97 527.471Z" clip-rule="evenodd"/></g><g filter="url(#filter6_b_233_59)"><path fill="#4F426D" fill-opacity=".95" d="M1051.82 478.479C1055.82 431.979 1022.15 431.812 1000.82 426.479C961.818 417.812 877.618 405.679 852.818 426.479C821.818 452.479 818.818 478.479 820.818 528.479C822.818 578.479 850.818 610.479 912.818 612.479C974.818 614.479 1047.82 524.979 1051.82 478.479Z"/><path fill="#4F426D" fill-opacity=".95" d="M1116.39 486.002C1116.68 439.332 1150.22 442.26 1171.96 438.911C1211.59 433.866 1296.55 429.525 1319.33 452.517C1347.81 481.257 1345.41 508.422 1338.82 558.027C1316.33 613.978 1276.82 632.213 1242.48 632.213C1180.56 628.505 1116.1 532.672 1116.39 486.002Z"/></g><path fill="#2C231C" fill-opacity=".95" d="M919.818 824.479C906.818 793.479 906.818 757.979 906.818 757.979C906.818 757.979 893.318 835.479 886.318 835.479C879.318 835.479 891.307 799.881 885.818 775.479C883.318 764.364 877.818 757.979 809.318 685.979C795.318 667.979 796.485 665.479 795.318 654.979C792.818 648.812 787.818 642.779 787.818 667.979C787.818 699.479 794.818 784.479 850.818 869.979C906.818 955.479 1002.32 991.979 1047.32 993.979C1092.32 995.979 1104.82 992.479 1167.32 971.479C1229.82 950.479 1256.82 897.479 1278.82 874.979C1300.82 852.479 1328.82 755.479 1332.82 745.979C1336.82 736.479 1348.82 723.979 1348.82 679.479C1356.82 677.479 1338.82 647.479 1337.32 673.479C1337.32 673.479 1332.58 690.696 1328.82 702.479C1316.32 707.479 1231.82 773.479 1224.82 806.479C1217.82 839.479 1224.82 831.979 1215.32 852.479C1208.82 857.479 1208.82 779.979 1208.82 779.979C1208.82 779.979 1204.32 817.979 1170.32 857.479C1157.04 872.904 1130.82 891.479 1130.82 891.479C1079.82 882.479 1082.82 857.479 1082.82 857.479L1095.82 817.979L1055.82 824.479L1012.82 812.979L1022.82 857.479C1022.82 857.479 1002.4 870.495 986.318 871.479C963.979 872.847 937.818 846.979 937.818 846.979C937.818 846.979 926.416 833.85 919.818 824.479Z"/><path fill="#2C231C" d="M798.818 597.978L802.818 677.478C797.618 679.878 789.985 676.478 787.818 674.479C787.318 664.312 787.818 665.979 786.318 642.979C784.718 642.179 785.652 618.312 785.318 606.479L784.318 550.978C784.318 541.145 786.718 517.078 784.318 507.479C781.318 495.479 782.318 504.979 781.318 487.979C774.474 478.612 769.705 479.628 769.445 477.187C766.163 476.961 761.805 475.953 757.318 473.979C744.818 468.479 766.318 478.979 757.318 434.979C748.318 390.979 780.818 380.979 766.318 357.979C751.818 334.979 777.318 266.479 781.818 260.479C786.318 254.479 795.818 230.979 797.818 211.979C799.818 192.979 826.318 182.479 824.818 174.479C823.318 166.479 827.318 168.979 837.818 143.479C848.318 117.979 853.318 129.479 858.318 115.479C863.318 101.479 924.318 81.9785 919.318 76.9785C914.318 71.9785 922.818 64.9785 924.318 59.9785C925.818 54.9785 933.818 61.9785 938.818 57.9781C943.818 53.9778 937.318 46.9785 941.818 48.4785C946.318 49.9785 965.318 46.4785 961.818 40.9785C958.318 35.4785 942.318 7.47815 952.818 20.9781C963.318 34.4781 968.818 -19.0219 973.818 7.47815C978.818 33.9781 996.818 25.9781 1022.82 44.4781C1048.82 62.9781 1086.82 57.9781 1092.32 57.9781C1097.82 57.9781 1163.82 82.9781 1186.32 85.9781C1208.82 88.9781 1225.82 108.978 1236.82 114.978C1247.82 120.978 1317.82 163.978 1318.32 171.478C1318.82 178.978 1344.82 215.978 1361.32 229.478C1377.82 242.978 1402.32 299.978 1407.32 322.478C1412.32 344.978 1416.82 368.978 1420.82 376.978C1424.82 384.978 1410.82 445.478 1404.32 447.478C1397.82 449.478 1403.82 471.978 1404.32 480.478C1404.82 488.978 1393.32 487.479 1392.32 504.979C1366.32 518.479 1367.82 534.479 1361.82 542.478C1359.82 545.979 1356.32 643.978 1356.32 643.978C1353.32 651.479 1351.82 704.478 1344.82 700.478C1337.82 696.478 1348.32 713.478 1344.82 716.978C1342.02 719.778 1338.65 729.478 1337.32 733.978C1334.65 723.311 1329.62 701.678 1330.82 700.478C1333 687.85 1335.17 681.669 1336.73 678.714C1331.76 683.479 1343.12 639.142 1346.82 616.978C1348.32 591.479 1348.32 582.478 1348.32 582.478C1347.48 557.311 1346.32 505.478 1348.32 499.478C1350.82 491.978 1334.32 459.478 1331.82 449.978C1329.32 440.478 1330.82 401.478 1334.32 393.978C1337.82 386.478 1320.82 376.478 1316.32 368.978C1311.82 361.478 1335.82 368.978 1320.82 351.478C1305.82 333.978 1292.82 277.478 1295.82 272.978C1298.82 268.478 1272.82 244.978 1268.82 245.978C1264.82 246.978 1269.32 238.978 1246.32 248.978C1223.32 258.978 1148.32 252.478 1126.82 257.478C1105.32 262.478 1076.32 236.478 1059.82 240.978C1043.32 245.478 997.318 238.978 982.318 244.978C967.318 250.978 917.318 236.478 919.318 252.478C921.318 268.478 917.318 279.478 919.318 284.478C921.318 289.478 917.318 303.478 912.318 316.978C907.318 330.478 893.318 338.478 891.318 345.478C889.318 352.478 887.818 347.478 902.318 351.478C916.818 355.479 915.318 348.478 917.318 351.478C919.318 354.478 940.318 342.478 942.818 345.478C944.31 347.268 937.923 350.652 931.952 353.224L936.318 351.478H950.318C944.985 352.811 932.718 356.278 926.318 359.478C918.318 363.478 912.318 361.478 908.318 360.978C904.318 360.478 901.818 355.478 895.818 355.478C889.818 355.478 889.218 351.478 887.818 352.478C884.318 354.978 871.818 349.978 875.818 355.478C879.018 359.878 887.485 359.978 891.318 359.478C901.318 361.145 921.818 365.178 923.818 367.978C925.818 370.778 926.318 372.478 926.318 372.978C925.152 372.978 922.518 372.478 921.318 370.478C919.818 367.978 908.818 365.478 899.818 364.478C892.618 363.678 896.818 368.145 899.818 370.478L908.818 372.978L912.318 379.478C905.318 377.311 891.318 372.478 891.318 370.478C891.318 367.978 875.318 366.978 871.818 367.978C869.018 368.778 854.985 362.645 848.318 359.478L831.818 402.478L816.318 436.978L799.818 532.978L800.818 550.978L798.818 597.978Z"/><path stroke="#000" stroke-width="3" d="M1057.32 475.479H1050.82C1052.82 457.979 1042.32 442.979 1031.82 434.979C1023.42 428.579 1004.65 423.645 996.318 421.979C1056.99 423.812 1177.72 428.079 1175.32 430.479C1172.32 433.479 1167.82 440.979 1146.32 442.979C1129.12 444.579 1121.49 459.645 1119.82 466.979L1118.32 480.479H1111.32C1111.49 478.145 1111.72 472.379 1111.32 467.979C1110.92 463.579 1102.49 459.812 1098.32 458.479C1089.15 458.645 1069.62 458.879 1064.82 458.479C1060.02 458.079 1057.82 462.645 1057.32 464.979V475.479Z"/><path stroke="#000" stroke-width="3" d="M1051.82 478.479C1055.82 431.979 1022.15 431.812 1000.82 426.479C961.818 417.812 877.618 405.679 852.818 426.479C821.818 452.479 818.818 478.479 820.818 528.479C822.818 578.479 850.818 610.479 912.818 612.479C974.818 614.479 1047.82 524.979 1051.82 478.479Z"/><path stroke="#000" stroke-width="3" d="M1116.39 486.002C1116.68 439.332 1150.22 442.26 1171.96 438.911C1211.59 433.866 1296.55 429.525 1319.33 452.517C1347.81 481.257 1345.41 508.422 1338.82 558.027C1316.33 613.978 1276.82 632.213 1242.48 632.213C1180.56 628.505 1116.1 532.672 1116.39 486.002Z"/><path fill="#000" d="M1342.82 517.478V504.978H1347.82C1347.82 504.978 1368.32 503.979 1392.82 504.978C1394.82 505.979 1397.82 509.478 1402.82 517.478C1402.97 518.837 1403.03 519.629 1402.82 520.979C1402.82 525.979 1400.82 516.479 1392.82 507.978C1370.32 502.979 1347.82 517.478 1347.82 517.478H1342.82Z"/><path fill="#000" d="M819.817 488.899L821.117 476.506L816.756 475.854C816.756 475.854 774.318 469.478 754.211 468.902C752.098 469.633 748.667 472.711 742.665 479.99C742.337 481.317 742.175 482.094 742.208 483.461C741.556 488.418 744.779 480.26 753.82 472.876C778.316 472.542 815.124 488.247 815.124 488.247L819.817 488.899Z"/><ellipse cx="1023.73" cy="656.226" fill="#BA6D77" rx="12.5" ry="6.528" transform="rotate(11 1023.73 656.226)"/><ellipse cx="1110.01" cy="663.753" fill="#BA6D77" rx="13.056" ry="6.528"/><path fill="url(#paint1_linear_233_59)" d="M1140.43 601.759C1093.44 534.136 1104.41 465.726 1087.2 462.636C1064.91 458.636 1056.91 531.64 1010 586.969C993.412 598.986 980.388 612.784 983.203 635.038C987.061 665.544 1016 664.544 1016 664.544C1016 664.544 995.646 646.131 1021.92 646.131C1037.59 647.98 1039.04 663.695 1064.85 676.636C1090.2 667.855 1088.96 650.754 1117.07 654.913C1137.81 653.989 1122.21 673.788 1122.21 673.788C1122.21 673.788 1161.32 676.636 1157.63 636.887C1153.02 622.559 1151.03 617.013 1140.43 601.759Z"/><path fill="#2C231C" fill-opacity=".55" d="M1117.32 277.479C1078.32 257.479 1046.82 257.479 931.818 257.479C924.318 280.979 944.318 285.979 931.818 315.479C919.818 326.979 936.318 327.979 882.818 376.979C864.418 384.979 846.652 371.145 833.318 364.479L877.318 175.979L1302.82 189.979L1392.82 428.979C1378.49 437.479 1332.82 474.979 1322.82 418.979C1328.32 398.479 1302.82 369.979 1274.32 268.979C1265.82 260.479 1177.32 272.979 1117.32 277.479Z"/><defs><filter id="filter0_f_233_59" width="29.873" height="81.535" x="742.608" y="487.443" color-interpolation-filters="sRGB" filterUnits="userSpaceOnUse"><feFlood flood-opacity="0" result="BackgroundImageFix"/><feBlend in="SourceGraphic" in2="BackgroundImageFix" mode="normal" result="shape"/><feGaussianBlur result="effect1_foregroundBlur_233_59" stdDeviation=".75"/></filter><filter id="filter1_f_233_59" width="28.5" height="65.685" x="1376.32" y="534.794" color-interpolation-filters="sRGB" filterUnits="userSpaceOnUse"><feFlood flood-opacity="0" result="BackgroundImageFix"/><feBlend in="SourceGraphic" in2="BackgroundImageFix" mode="normal" result="shape"/><feGaussianBlur result="effect1_foregroundBlur_233_59" stdDeviation=".75"/></filter><filter id="filter2_f_233_59" width="14.831" height="27.693" x="760.777" y="579.209" color-interpolation-filters="sRGB" filterUnits="userSpaceOnUse"><feFlood flood-opacity="0" result="BackgroundImageFix"/><feBlend in="SourceGraphic" in2="BackgroundImageFix" mode="normal" result="shape"/><feGaussianBlur result="effect1_foregroundBlur_233_59" stdDeviation="1"/></filter><filter id="filter3_f_233_59" width="18.893" height="31.538" x="767.93" y="545.872" color-interpolation-filters="sRGB" filterUnits="userSpaceOnUse"><feFlood flood-opacity="0" result="BackgroundImageFix"/><feBlend in="SourceGraphic" in2="BackgroundImageFix" mode="normal" result="shape"/><feGaussianBlur result="effect1_foregroundBlur_233_59" stdDeviation="1"/></filter><filter id="filter4_f_233_59" width="25.391" height="39.5" x="1356.43" y="602.978" color-interpolation-filters="sRGB" filterUnits="userSpaceOnUse"><feFlood flood-opacity="0" result="BackgroundImageFix"/><feBlend in="SourceGraphic" in2="BackgroundImageFix" mode="normal" result="shape"/><feGaussianBlur result="effect1_foregroundBlur_233_59" stdDeviation="1"/></filter><filter id="filter5_f_233_59" width="16.846" height="32.707" x="1352.41" y="645.504" color-interpolation-filters="sRGB" filterUnits="userSpaceOnUse"><feFlood flood-opacity="0" result="BackgroundImageFix"/><feBlend in="SourceGraphic" in2="BackgroundImageFix" mode="normal" result="shape"/><feGaussianBlur result="effect1_foregroundBlur_233_59" stdDeviation="1"/></filter><filter id="filter6_b_233_59" width="536.728" height="231.219" x="813.333" y="407.994" color-interpolation-filters="sRGB" filterUnits="userSpaceOnUse"><feFlood flood-opacity="0" result="BackgroundImageFix"/><feGaussianBlur in="BackgroundImage" stdDeviation="3.5"/><feComposite in2="SourceAlpha" operator="in" result="effect1_backgroundBlur_233_59"/><feBlend in="SourceGraphic" in2="effect1_backgroundBlur_233_59" mode="normal" result="shape"/></filter><linearGradient id="paint0_linear_233_59" x1="915.999" x2="915.999" y1="2527" y2="2987.5" gradientUnits="userSpaceOnUse"><stop stop-color="#F9C363"/><stop offset="1" stop-color="#F9C363" stop-opacity="0"/></linearGradient><linearGradient id="paint1_linear_233_59" x1="1088.5" x2="1053" y1="362.5" y2="952" gradientUnits="userSpaceOnUse"><stop stop-color="#E5B899"/><stop offset=".531" stop-color="#D0A18F"/></linearGradient></defs></svg>